<?xml version="1.0" encoding="utf-8"?>
<!-- Generator: Adobe Illustrator 22.0.1, SVG Export Plug-In . SVG Version: 6.00 Build 0)  -->
<svg version="1.1" id="Layer_1" xmlns="http://www.w3.org/2000/svg" xmlns:xlink="http://www.w3.org/1999/xlink" x="0px" y="0px"
	 viewBox="0 0 322 241" style="enable-background:new 0 0 322 241;" xml:space="preserve">
<style type="text/css">
	.st0{fill-rule:evenodd;clip-rule:evenodd;fill:#DEF9F4;}
	.st1{fill-rule:evenodd;clip-rule:evenodd;fill:#FFFFFF;}
	.st2{fill-rule:evenodd;clip-rule:evenodd;fill:#FFDA78;}
	.st3{fill-rule:evenodd;clip-rule:evenodd;fill:#28487C;}
	.st4{fill:#1CB388;}
	.st5{fill:#FFFFFF;}
	.st6{fill:#324A5E;}
	.st7{fill:#76DEFF;}
	.st8{fill:#94D9F8;}
	.st9{fill-rule:evenodd;clip-rule:evenodd;fill:#F8C0B6;}
	.st10{fill-rule:evenodd;clip-rule:evenodd;fill:#DC9B93;}
	.st11{fill-rule:evenodd;clip-rule:evenodd;fill:#D6C1C5;}
</style>
<g id="dashboard-on-mobile-icon">
	<path class="st0" d="M68.2,44c0,0-63,27-27,63s72,153,162,117s99-45,81-108S149.2,8,68.2,44z"/>
	<g>
		
			<rect x="151.8" y="-14.8" transform="matrix(1.844333e-03 -1 1 1.844333e-03 137.9639 175.0892)" class="st1" width="9.9" height="66.4"/>
		<polygon class="st2" points="104.2,26.8 104.2,30.1 103.9,185.5 203.4,185.7 203.4,184 203.7,27 		"/>
		<path class="st3" d="M198.7,8.2l-44.8-0.1L109.2,8c-7.5,0-13.6,6.1-13.6,13.5l-0.3,173.7c0,7.5,6.1,13.6,13.5,13.6l44.8,0.1
			l44.8,0.1c7.5,0,13.6-6.1,13.6-13.5l0.3-173.7C212.3,14.3,206.2,8.2,198.7,8.2z M130,15.6l24,0l24,0c1.8,0,3.2,1.4,3.2,3.2
			c0,1.8-1.4,3.2-3.2,3.2l-24,0l-24,0c-1.8,0-3.2-1.4-3.2-3.2C126.8,17,128.2,15.6,130,15.6z M153.6,204.2c-4.4,0-7.9-3.6-7.9-7.9
			c0-4.4,3.6-7.9,7.9-7.9c4.4,0,7.9,3.6,7.9,7.9C161.5,200.6,158,204.2,153.6,204.2z M202.5,183.9l-48.9-0.1l-48.9-0.1L105,29.5
			l48.9,0.1l48.9,0.1L202.5,183.9z"/>
		<rect x="104.7" y="29.2" class="st4" width="98.3" height="16.1"/>
		<g>
			<path class="st5" d="M123.5,32.6c0,0.6-0.5,1.1-1.1,1.1h-12.2c-0.6,0-1.1-0.5-1.1-1.1l0,0c0-0.6,0.5-1.1,1.1-1.1h12.2
				C123.1,31.6,123.5,32,123.5,32.6L123.5,32.6z"/>
			<path class="st5" d="M123.5,36.9c0,0.6-0.5,1.1-1.1,1.1h-12.2c-0.6,0-1.1-0.5-1.1-1.1l0,0c0-0.6,0.5-1.1,1.1-1.1h12.2
				C123.1,35.8,123.5,36.3,123.5,36.9L123.5,36.9z"/>
			<path class="st5" d="M123.5,41.2c0,0.6-0.5,1.1-1.1,1.1h-12.2c-0.6,0-1.1-0.5-1.1-1.1l0,0c0-0.6,0.5-1.1,1.1-1.1h12.2
				C123.1,40.1,123.5,40.6,123.5,41.2L123.5,41.2z"/>
		</g>
		<g>
			<rect x="112.6" y="101" class="st6" width="20.6" height="20.8"/>
			<g>
				<rect x="143.6" y="103.8" class="st6" width="41.2" height="1.6"/>
				<rect x="143.6" y="107.2" class="st6" width="41.2" height="1.6"/>
				<rect x="143.6" y="110.6" class="st6" width="41.2" height="1.6"/>
				<rect x="143.6" y="114" class="st6" width="41.2" height="1.6"/>
				<rect x="143.6" y="117.4" class="st6" width="27.3" height="1.6"/>
			</g>
		</g>
		<g>
			<rect x="112.6" y="131.8" class="st6" width="20.6" height="20.8"/>
			<g>
				<rect x="143.6" y="134.7" class="st6" width="41.2" height="1.6"/>
				<rect x="143.6" y="138" class="st6" width="41.2" height="1.6"/>
				<rect x="143.6" y="141.4" class="st6" width="41.2" height="1.6"/>
				<rect x="143.6" y="144.8" class="st6" width="41.2" height="1.6"/>
				<rect x="143.6" y="148.2" class="st6" width="27.3" height="1.6"/>
			</g>
		</g>
		<rect x="112.6" y="70.4" class="st6" width="20.6" height="20.8"/>
		<rect x="104.9" y="45.3" class="st7" width="98.2" height="14.6"/>
		<path class="st5" d="M199,52.3c0,2.8-2.3,5-5,5h-35.3c-2.8,0-5-2.3-5-5l0,0c0-2.8,2.3-5,5-5H194C196.8,47.3,199,49.6,199,52.3
			L199,52.3z"/>
		<path class="st8" d="M192.5,50c-0.9-0.9-2.3-0.9-3.1,0c-0.9,0.9-0.9,2.3,0,3.1c0.7,0.7,1.7,0.8,2.6,0.4l1.7,1.7l1-1l-1.7-1.7
			C193.3,51.8,193.2,50.7,192.5,50z M191.9,52.5c-0.5,0.5-1.3,0.5-1.8,0c-0.5-0.5-0.5-1.3,0-1.8c0.5-0.5,1.3-0.5,1.8,0
			C192.4,51.2,192.4,52,191.9,52.5z"/>
		<g>
			<rect x="143.6" y="73.2" class="st6" width="41.2" height="1.6"/>
			<rect x="143.6" y="76.6" class="st6" width="41.2" height="1.6"/>
			<rect x="143.6" y="80" class="st6" width="41.2" height="1.6"/>
			<rect x="143.6" y="83.4" class="st6" width="41.2" height="1.6"/>
			<rect x="143.6" y="86.8" class="st6" width="27.3" height="1.6"/>
		</g>
	</g>
	<g>
		<g>
			<path class="st9" d="M61,190.4L45.4,215c3.3-0.2,54,18,54,18l11.1-18.2L61,190.4z"/>
		</g>
		<g>
			<path class="st10" d="M79.5,105.3l-15.8,43.2c-2,5.6-4.2,28.6,1.1,31.1c5.4,2.5,14.9-12.9,16.8-18.5l9.4-31.2
				C96.4,112.1,85.6,107.3,79.5,105.3z"/>
			<path class="st9" d="M83,219.7l30-3.2c7.3-4.7,15.5-11.9,20.1-19.3l23.5-38.5c5.1-8.4-3.2-19-11.2-15.8
				c2.1-8.6-6.9-17.6-14.8-12.8c4.1-8.7-4.7-19-12.9-15.4l27.8-45.7c7-11.1-9.1-23.8-17.2-10.1L63.4,166.3
				c-3.5,5.8-2.1,13.3-1.9,23.7C61.7,199,70.2,213.6,83,219.7z"/>
			<path class="st11" d="M137.7,156.8c0,0,4.8-7.5,9.1-14.3c-0.5,0.1-0.9,0.2-1.4,0.4c0.2-0.8,0.3-1.5,0.3-2.3
				C142.1,147.9,137.7,156.8,137.7,156.8L137.7,156.8z M124.6,141.6l-0.2-0.8c2.1-4.2,5-10.1,7.2-14.5c-0.1,1.3-0.4,2.6-1,3.8
				c0.5-0.3,1.1-0.6,1.6-0.8C129.6,133.5,126.7,138.2,124.6,141.6L124.6,141.6z M117.3,118.6l-0.6-2c0.4-0.7,0.7-1.3,1-1.8
				c-0.1,0.1,0,0,0.2-0.1c0.7-0.3,1.5-0.5,2.2-0.6C119.3,115.5,118.3,117,117.3,118.6z M116.6,116.6l0.6,2
				c-4.7,7.2-10.4,15.7-10.4,15.7S113,122.9,116.6,116.6L116.6,116.6z M124.4,140.8l0.2,0.8c-1.7,2.7-2.8,4.5-2.8,4.5
				S122.8,143.9,124.4,140.8z"/>
		</g>
	</g>
</g>
</svg>
