<?xml version="1.0" encoding="utf-8"?>
<!-- Generator: Adobe Illustrator 22.0.1, SVG Export Plug-In . SVG Version: 6.00 Build 0)  -->
<svg version="1.1" id="Layer_1" xmlns="http://www.w3.org/2000/svg" xmlns:xlink="http://www.w3.org/1999/xlink" x="0px" y="0px"
	 viewBox="0 0 322 241" style="enable-background:new 0 0 322 241;" xml:space="preserve">
<style type="text/css">
	.st0{fill:#DEF9F4;}
	.st1{opacity:0.6;fill:#DC9B93;}
	.st2{fill:#28487C;}
	.st3{fill:#76DEFF;}
	.st4{fill:#1CB388;}
	.st5{opacity:0.5;fill:#DEF9F4;}
	.st6{fill:#FFDA78;}
</style>
<g id="analyse-trends-icon">
	<path class="st0" d="M236,67.5c-25.8-3.9-51.1-10.9-74.9-21.8c-22.6-10.3-50.1-17.4-68.3-3.7c-36,27-27,144,18,144s144,63,153,9
		C271.6,148.8,292.5,76.1,236,67.5z"/>
	
		<rect x="84.7" y="148.2" transform="matrix(0.7071 -0.7071 0.7071 0.7071 -80.7742 114.1374)" class="st1" width="25.5" height="12.7"/>
	<g>
		<path class="st2" d="M211.7,44.8l-1.5-2c0,0-6.8-12.7-25-17.7c-2.7-0.7-11.2-2-17.7,0c-18.1,5.4-25,17.7-25,17.7l-1.5,2l-5.5,28.8
			c7.2-35.6,28.6-41.7,40.8-42.1h0c10.2,0.4,26.7,4.6,36.1,26.5c1.9,4.4,3.5,9.6,4.7,15.6L211.7,44.8z"/>
		<path class="st2" d="M258.8,93.7h-67.9H166H98.1c0,0-7,4.1-4.7,8.2c2.3,4.1,27,79.9,26.4,102.2H166h24.9h46.2
			c-0.6-22.3,24.1-98.1,26.4-102.2C265.9,97.8,258.8,93.7,258.8,93.7z"/>
		<path class="st3" d="M258.8,93.7H244c0,0,7,4.1,4.7,8.2c-2.3,4.1-27,79.9-26.4,102.2h14.8c-0.6-22.3,24.1-98.1,26.4-102.2
			C265.9,97.8,258.8,93.7,258.8,93.7z"/>
		<path class="st3" d="M136.4,120.3l4.6-75.5c0,0-15.4,26.4-15.1,49.7V120l1.1,0.3H136.4z"/>
		<path class="st3" d="M216.3,120.3l-4.6-75.5c0,0,15.4,26.4,15.1,49.7V120l-1.1,0.3H216.3z"/>
		<path class="st4" d="M144.6,110.1l-2.5-15.4c-0.2-1.9-1.9-3.3-3.8-3.3h-13.1c-1.9,0-3.5,1.4-3.8,3.3l-2.5,15.4
			c-0.3,2.3,1.5,4.3,3.8,4.3h18.1C143.1,114.4,144.9,112.4,144.6,110.1z M124.4,109.1l2.1-12.4H137l2.1,12.4H124.4z"/>
		<path class="st4" d="M233.5,110.1L231,94.7c-0.2-1.9-1.9-3.3-3.8-3.3h-13.1c-1.9,0-3.5,1.4-3.8,3.3l-2.5,15.4
			c-0.3,2.3,1.5,4.3,3.8,4.3h18.1C232,114.4,233.8,112.4,233.5,110.1z M213.3,109.1l2.1-12.4h10.5l2.1,12.4H213.3z"/>
	</g>
	<g>
		<g>
			<path class="st2" d="M94.1,82.4c-1.1,16.6-2.9,33.7,2.3,49.5c7.7,23.5,39.9,18,59.2,16.7c5.2-0.3,10.4-0.8,15.5-0.6
				c5.2,0.2,13.1,2.2,16-3.3c4.2-8,0.9-21.5,0.5-30.1c-0.4-10.7-0.2-21.4,0.1-32.2H94.1z"/>
			<path class="st3" d="M133,59.5c-1.7,8.1-2.7,16.4-2.6,24.4v43.5l1.8,0.5h16.1l4.5-72.9C146.2,55.2,139.4,57.4,133,59.5z"/>
			<path class="st4" d="M162.2,110.5L158,84.3c-0.4-3.2-3.2-5.6-6.4-5.6h-22.4c-3.2,0-6,2.4-6.4,5.6l-4.2,26.3
				c-0.5,3.9,2.5,7.3,6.4,7.3h30.8C159.7,117.8,162.7,114.4,162.2,110.5z M127.9,108.8l3.6-21.2h17.9l3.6,21.2H127.9z"/>
		</g>
		<circle class="st5" cx="142.4" cy="109.6" r="49.5"/>
		<path class="st6" d="M52.1,179.6c-5.6,5.6-5.6,14.7,0,20.3c5.6,5.6,14.7,5.6,20.3,0l24.1-24.1c5.5-5.5,5.4-14.4-0.2-19.9
			c-0.1-0.1-0.1-0.1-0.2-0.2c-5.5-5.5-14.4-5.7-19.9-0.2L52.1,179.6L52.1,179.6z M52.1,179.6"/>
		<path class="st6" d="M86.1,108.4c0,31.7,25.7,57.4,57.4,57.4c31.7,0,57.4-25.7,57.4-57.4c0-31.7-25.7-57.4-57.4-57.4
			C111.8,51.1,86.1,76.8,86.1,108.4L86.1,108.4z M143.5,151.5c-23.7,0-43-19.3-43-43c0-23.7,19.3-43,43-43c23.7,0,43,19.3,43,43
			C186.5,132.2,167.2,151.5,143.5,151.5L143.5,151.5z M143.5,151.5"/>
		<path class="st6" d="M177,108.4C177,90,162,75,143.5,75v9.6c13.2,0,23.9,10.7,23.9,23.9H177L177,108.4z M177,108.4"/>
	</g>
</g>
</svg>
