<?xml version="1.0" encoding="utf-8"?>
<!-- Generator: Adobe Illustrator 22.0.1, SVG Export Plug-In . SVG Version: 6.00 Build 0)  -->
<svg version="1.1" id="Layer_1" xmlns="http://www.w3.org/2000/svg" xmlns:xlink="http://www.w3.org/1999/xlink" x="0px" y="0px"
	 viewBox="0 0 1598.4 816" style="enable-background:new 0 0 1598.4 816;" xml:space="preserve">
<style type="text/css">
	.st0{clip-path:url(#SVGID_2_);}
	.st1{fill:#DEF9F4;}
	.st2{opacity:0.3;fill:#28487C;}
	.st3{opacity:0.4;fill:#28487C;}
	.st4{opacity:0.1;fill:#28487C;}
	.st5{opacity:0.5;}
	.st6{fill:#28487C;}
	.st7{opacity:0.5;fill:#28487C;}
	.st8{opacity:0.1;}
	.st9{fill:#D1D943;}
	.st10{fill:#34383A;}
	.st11{fill:#1CB388;}
	.st12{fill:#76DEFF;}
	.st13{fill:#FFDA78;}
	.st14{fill:#E8B665;}
	.st15{fill:#95F4D6;}
	.st16{fill:#7F7F7B;}
	.st17{fill:#7F817E;}
	.st18{fill:#806C5A;}
	.st19{fill:#D7924B;}
	.st20{opacity:0.15;fill:#12100B;}
	.st21{fill:#B29F8C;}
	.st22{fill:#415C96;}
	.st23{fill:#FFFFFF;}
	.st24{fill:#EDF5F8;}
</style>
<g>
	<defs>
		<rect id="SVGID_1_" x="1.5" y="-16" width="1609.3" height="831"/>
	</defs>
	<clipPath id="SVGID_2_">
		<use xlink:href="#SVGID_1_"  style="overflow:visible;"/>
	</clipPath>
	<g id="city-illustration" class="st0">
		<path class="st1" d="M1193.9,826.7c26.4,7,314.6-356.7-12.7-576.6s-361.8,9.8-879.4-197.6c-478.5-191.7-749.6,605.3-29.9,797.1"/>
		<g>
			<path class="st2" d="M884.3,457.5c-70,0-127-57-127-127s57-127,127-127s127,57,127,127S954.4,457.5,884.3,457.5z M884.3,207
				c-68.1,0-123.5,55.4-123.5,123.5S816.2,454,884.3,454s123.5-55.4,123.5-123.5S952.4,207,884.3,207z"/>
			<path class="st3" d="M884.3,448.1c-64.8,0-117.6-52.7-117.6-117.6h26.4c0,50.3,40.9,91.2,91.2,91.2c50.3,0,91.2-40.9,91.2-91.2
				c0-50.3-40.9-91.2-91.2-91.2v-26.4c64.8,0,117.6,52.7,117.6,117.6C1001.9,395.3,949.2,448.1,884.3,448.1z"/>
			
				<ellipse transform="matrix(0.9997 -2.298290e-02 2.298290e-02 0.9997 -7.3622 20.4117)" class="st4" cx="884.3" cy="330.5" rx="73.2" ry="73.2"/>
			<g class="st5">
				<path class="st6" d="M879.2,320.9c0,4.4-0.9,7.7-2.6,10c-1.7,2.2-4.2,3.3-7.5,3.3c-3.2,0-5.6-1.1-7.4-3.4
					c-1.7-2.3-2.6-5.6-2.6-9.9c0-8.8,3.3-13.2,9.9-13.2c3.2,0,5.7,1.1,7.5,3.4C878.3,313.4,879.2,316.6,879.2,320.9z M866.4,320.9
					c0,2.4,0.2,4.3,0.6,5.5c0.4,1.2,1.1,1.8,2.1,1.8c1.8,0,2.8-2.4,2.8-7.3c0-4.8-0.9-7.2-2.8-7.2c-1,0-1.7,0.6-2.1,1.8
					C866.7,316.7,866.4,318.5,866.4,320.9z M899.1,308.3l-23.4,42.2h-6.9l23.4-42.2H899.1z M908.8,337.7c0,4.4-0.9,7.7-2.6,9.9
					c-1.7,2.2-4.2,3.3-7.5,3.3c-3.2,0-5.6-1.1-7.4-3.4c-1.7-2.3-2.6-5.6-2.6-9.8c0-8.8,3.3-13.2,10-13.2c3.2,0,5.7,1.1,7.5,3.4
					C907.9,330.2,908.8,333.5,908.8,337.7z M896,337.8c0,2.4,0.2,4.3,0.6,5.5c0.4,1.2,1.1,1.8,2.1,1.8c1.8,0,2.8-2.4,2.8-7.3
					c0-4.8-0.9-7.2-2.8-7.2c-1,0-1.7,0.6-2.1,1.8C896.2,333.5,896,335.3,896,337.8z"/>
			</g>
		</g>
		<g>
			<path class="st7" d="M1268.8,506.4c9.5-16.7,14.9-36,14.9-56.6c0-35.2-15.8-66.7-40.6-87.8c-32.9,38.6-71.4,83.7-74.5,87.8
				L1268.8,506.4z"/>
			<path class="st3" d="M1110.8,350.1c-34.4,19.9-57.5,57.1-57.5,99.7c0,51.8,34.2,95.6,81.2,110.1l33.9-110.1L1110.8,350.1z"/>
			<path class="st2" d="M1243,362c-20.1-17.1-46.1-27.4-74.5-27.4c-21,0-40.7,5.6-57.7,15.5l57.7,99.7
				C1171.6,445.7,1210.1,400.5,1243,362z"/>
			<path class="st4" d="M1268.8,506.4l-100.3-56.6l-33.9,110.1c10.7,3.3,22.1,5.1,33.9,5.1C1211.5,564.9,1249,541.3,1268.8,506.4z"
				/>
		</g>
		<g>
			<path class="st3" d="M358.7,607.5c-14,0-28-1.6-42-4.9c-47.6-11.1-88.1-40-113.8-81.5c-22.7-36.5-31.8-80.2-25.6-122.8l22.9,3.3
				c-5.4,37.2,2.5,75.3,22.4,107.2c22.5,36.2,57.8,61.4,99.4,71.2c41.6,9.7,84.5,2.7,120.6-19.8c36.2-22.5,61.4-57.8,71.2-99.4
				c9.7-41.6,2.7-84.5-19.8-120.6c-46.5-74.8-145.2-97.8-220.1-51.3l-12.2-19.7c85.7-53.3,198.7-26.9,252,58.8
				c25.8,41.4,33.8,90.5,22.7,138.1c-11.1,47.6-40,88.1-81.5,113.8C425.6,598.2,392.5,607.5,358.7,607.5z"/>
			<path class="st4" d="M358.3,574.5c-82.7,0-150-67.3-150-150s67.3-150,150-150s150,67.3,150,150H485
				c0-69.9-56.9-126.8-126.8-126.8s-126.8,56.9-126.8,126.8s56.9,126.8,126.8,126.8V574.5z"/>
			<path class="st2" d="M358.2,541.6c-53.8,0-102.3-37.4-114.3-92.1c-5.9-27-2-55.3,11-79.7l20.5,10.9
				c-10.4,19.6-13.5,42.3-8.8,63.9c11,50.5,61.1,82.7,111.6,71.7c50.5-11,82.7-61.1,71.7-111.6c-11-50.5-61.1-82.7-111.6-71.7
				l-4.9-22.6c63-13.7,125.5,26.4,139.2,89.4c13.7,63-26.4,125.5-89.4,139.2C374.8,540.7,366.5,541.6,358.2,541.6z"/>
			<path class="st4" d="M302.7,487.5c-34.7-30.7-38-83.8-7.4-118.5c30.7-34.7,83.8-38,118.5-7.4c34.7,30.7,38,83.8,7.4,118.5
				l-17.4-15.3c22.2-25.1,19.8-63.6-5.3-85.8c-12.2-10.7-27.8-16.1-44-15.1c-16.2,1-31.1,8.3-41.8,20.4
				c-10.7,12.2-16.1,27.8-15.1,44c1,16.2,8.3,31.1,20.4,41.8L302.7,487.5z"/>
		</g>
		<g class="st8">
			<g>
				<path class="st9" d="M1244.2,766.3c0,11.3-20.2,20.4-45.2,20.4H112.1c-25,0-45.2-9.1-45.2-20.4v-3c0-11.3,20.2-20.4,45.2-20.4
					H1199c25,0,45.2,9.1,45.2,20.4V766.3z"/>
			</g>
		</g>
		<g>
			<g>
				<path class="st10" d="M1589.2,815.4c0,24.6-18.3,44.5-40.8,44.5H152.9c-22.5,0-40.8-19.9-40.8-44.5v-6.6
					c0-24.6,18.3-44.5,40.8-44.5h1395.4c22.5,0,40.8,19.9,40.8,44.5V815.4z"/>
			</g>
		</g>
		<g>
			<g>
				<path class="st11" d="M1232.5,745c0,11.3-20.2,20.4-45.2,20.4H100.5c-25,0-45.2-9.1-45.2-20.4v-3c0-11.3,20.2-20.4,45.2-20.4
					h1086.9c24.9,0,45.2,9.1,45.2,20.4V745z"/>
			</g>
		</g>
		<g>
			<rect x="912.4" y="341.1" class="st12" width="150.9" height="380.5"/>
			<g>
				<rect x="934" y="359.2" class="st10" width="21.3" height="21.3"/>
				<rect x="962.8" y="359.2" class="st10" width="21.3" height="21.3"/>
				<rect x="991.6" y="359.2" class="st10" width="21.2" height="21.3"/>
				<rect x="1020.4" y="359.2" class="st10" width="21.3" height="21.3"/>
				<rect x="934" y="393.1" class="st10" width="21.3" height="21.3"/>
				<rect x="991.6" y="393.1" class="st10" width="21.2" height="21.3"/>
				<rect x="1020.4" y="393.1" class="st10" width="21.3" height="21.3"/>
				<rect x="934" y="427" class="st10" width="21.3" height="21.3"/>
				<rect x="962.8" y="427" class="st10" width="21.3" height="21.3"/>
				<rect x="991.6" y="427" class="st10" width="21.2" height="21.3"/>
				<rect x="1020.4" y="427" class="st10" width="21.3" height="21.3"/>
				<rect x="934" y="460.9" class="st10" width="21.3" height="21.3"/>
				<rect x="962.8" y="460.9" class="st10" width="21.3" height="21.3"/>
				<rect x="991.6" y="460.9" class="st10" width="21.2" height="21.3"/>
				<rect x="1020.4" y="460.9" class="st10" width="21.3" height="21.3"/>
				<rect x="934" y="494.7" class="st10" width="21.3" height="21.3"/>
				<rect x="962.8" y="494.7" class="st10" width="21.3" height="21.3"/>
				<rect x="991.6" y="494.7" class="st10" width="21.2" height="21.3"/>
				<rect x="1020.4" y="494.7" class="st10" width="21.3" height="21.3"/>
				<rect x="934" y="528.6" class="st10" width="21.3" height="21.3"/>
				<rect x="962.8" y="528.6" class="st10" width="21.3" height="21.3"/>
				<rect x="991.6" y="528.6" class="st10" width="21.2" height="21.3"/>
				<rect x="934" y="562.5" class="st10" width="21.3" height="21.3"/>
				<rect x="962.8" y="562.5" class="st10" width="21.3" height="21.3"/>
				<rect x="991.6" y="562.5" class="st10" width="21.2" height="21.3"/>
				<rect x="1020.4" y="562.5" class="st10" width="21.3" height="21.3"/>
				<rect x="934" y="596.4" class="st10" width="21.3" height="21.3"/>
				<rect x="962.8" y="596.4" class="st10" width="21.3" height="21.3"/>
				<rect x="991.6" y="596.4" class="st10" width="21.2" height="21.3"/>
				<rect x="1020.4" y="596.4" class="st10" width="21.3" height="21.3"/>
				<rect x="934" y="630.3" class="st10" width="21.3" height="21.2"/>
				<rect x="991.6" y="630.3" class="st10" width="21.2" height="21.2"/>
				<rect x="1020.4" y="630.3" class="st10" width="21.3" height="21.2"/>
				<rect x="934" y="664.2" class="st10" width="21.3" height="21.2"/>
				<rect x="962.8" y="664.2" class="st10" width="21.3" height="21.2"/>
				<rect x="991.6" y="664.2" class="st10" width="21.2" height="21.2"/>
				<rect x="1020.4" y="664.2" class="st10" width="21.3" height="21.2"/>
			</g>
			<rect x="961.5" y="308.8" class="st13" width="52.7" height="17.7"/>
			<rect x="927.1" y="323.8" class="st14" width="121.4" height="17.7"/>
		</g>
		<g>
			<rect x="780.2" y="446.5" class="st15" width="181.1" height="275.4"/>
			<g>
				<rect x="802.5" y="468.7" class="st10" width="26.6" height="13.3"/>
				<rect x="857.4" y="468.7" class="st10" width="26.6" height="13.3"/>
				<rect x="912.4" y="468.7" class="st10" width="26.6" height="13.3"/>
				<rect x="802.5" y="505.5" class="st10" width="26.6" height="13.3"/>
				<rect x="857.4" y="505.5" class="st10" width="26.6" height="13.3"/>
				<rect x="802.5" y="542.2" class="st10" width="26.6" height="13.3"/>
				<rect x="857.4" y="542.2" class="st10" width="26.6" height="13.3"/>
				<rect x="912.4" y="542.2" class="st10" width="26.6" height="13.3"/>
				<rect x="802.5" y="579" class="st10" width="26.6" height="13.3"/>
				<rect x="857.4" y="579" class="st10" width="26.6" height="13.3"/>
				<rect x="912.4" y="579" class="st10" width="26.6" height="13.3"/>
				<rect x="857.4" y="615.8" class="st10" width="26.6" height="13.3"/>
				<rect x="912.4" y="615.8" class="st10" width="26.6" height="13.3"/>
				<rect x="802.5" y="652.6" class="st10" width="26.6" height="13.3"/>
				<rect x="857.4" y="652.6" class="st10" width="26.6" height="13.3"/>
				<rect x="912.4" y="652.6" class="st10" width="26.6" height="13.3"/>
			</g>
			<rect x="770.8" y="437.8" class="st13" width="199.9" height="16.3"/>
		</g>
		<g>
			<polygon class="st15" points="514.2,512.5 514.2,634.4 563.8,634.4 563.8,722.2 514.2,722.2 379.2,722.2 379.2,634.4 
				379.2,512.5 			"/>
		</g>
		<rect x="514.2" y="628.4" class="st16" width="55.8" height="8.3"/>
		<rect x="418.1" y="494.6" class="st17" width="85.5" height="15.3"/>
		<rect x="471.4" y="531.2" class="st18" width="32.2" height="10.7"/>
		<rect x="471.4" y="574.8" class="st18" width="32.2" height="10.7"/>
		<rect x="471.4" y="596.6" class="st18" width="32.2" height="10.7"/>
		<rect x="471.4" y="618.4" class="st18" width="32.2" height="10.7"/>
		<rect x="471.4" y="640.2" class="st18" width="32.2" height="10.7"/>
		<g>
			<rect x="389.6" y="531.2" class="st10" width="32.2" height="10.7"/>
			<rect x="430.5" y="531.2" class="st10" width="32.2" height="10.7"/>
			<rect x="389.6" y="553" class="st10" width="32.2" height="10.7"/>
			<rect x="430.5" y="553" class="st10" width="32.2" height="10.7"/>
			<rect x="389.6" y="574.8" class="st10" width="32.2" height="10.7"/>
			<rect x="430.5" y="574.8" class="st10" width="32.2" height="10.7"/>
			<rect x="389.6" y="596.6" class="st10" width="32.2" height="10.7"/>
			<rect x="430.5" y="596.6" class="st10" width="32.2" height="10.7"/>
			<rect x="430.5" y="618.4" class="st10" width="32.2" height="10.7"/>
			<rect x="389.6" y="640.2" class="st10" width="32.2" height="10.7"/>
			<rect x="430.5" y="640.2" class="st10" width="32.2" height="10.7"/>
			<rect x="389.6" y="662.1" class="st10" width="32.2" height="10.7"/>
			<rect x="430.5" y="662.1" class="st10" width="32.2" height="10.7"/>
		</g>
		<rect x="519.9" y="662.1" class="st18" width="32.2" height="10.7"/>
		<rect x="373.5" y="507.1" class="st10" width="146.4" height="11.1"/>
		<g>
			<rect x="470.8" y="268.9" class="st13" width="166.7" height="452.5"/>
			<g>
				<rect x="494.7" y="282.7" class="st6" width="23.5" height="23.5"/>
				<rect x="526.5" y="282.7" class="st6" width="23.5" height="23.5"/>
				<rect x="558.3" y="282.7" class="st6" width="23.5" height="23.5"/>
				<rect x="590.1" y="282.7" class="st6" width="23.5" height="23.5"/>
				<rect x="494.7" y="320.1" class="st6" width="23.5" height="23.5"/>
				<rect x="558.3" y="320.1" class="st6" width="23.5" height="23.5"/>
				<rect x="590.1" y="320.1" class="st6" width="23.5" height="23.5"/>
				<rect x="494.7" y="357.5" class="st6" width="23.5" height="23.5"/>
				<rect x="526.5" y="357.5" class="st6" width="23.5" height="23.5"/>
				<rect x="558.3" y="357.5" class="st6" width="23.5" height="23.5"/>
				<rect x="590.1" y="357.5" class="st6" width="23.5" height="23.5"/>
				<rect x="494.7" y="395" class="st6" width="23.5" height="23.5"/>
				<rect x="526.5" y="395" class="st6" width="23.5" height="23.5"/>
				<rect x="558.3" y="395" class="st6" width="23.5" height="23.5"/>
				<rect x="590.1" y="395" class="st6" width="23.5" height="23.5"/>
				<rect x="494.7" y="432.4" class="st6" width="23.5" height="23.5"/>
				<rect x="526.5" y="432.4" class="st6" width="23.5" height="23.5"/>
				<rect x="558.3" y="432.4" class="st6" width="23.5" height="23.5"/>
				<rect x="590.1" y="432.4" class="st6" width="23.5" height="23.5"/>
				<rect x="494.7" y="469.8" class="st6" width="23.5" height="23.5"/>
				<rect x="526.5" y="469.8" class="st6" width="23.5" height="23.5"/>
				<rect x="558.3" y="469.8" class="st6" width="23.5" height="23.5"/>
				<rect x="494.7" y="507.3" class="st6" width="23.5" height="23.5"/>
				<rect x="526.5" y="507.3" class="st6" width="23.5" height="23.5"/>
				<rect x="558.3" y="507.3" class="st6" width="23.5" height="23.5"/>
				<rect x="590.1" y="507.3" class="st6" width="23.5" height="23.5"/>
				<rect x="494.7" y="544.7" class="st6" width="23.5" height="23.5"/>
				<rect x="526.5" y="544.7" class="st6" width="23.5" height="23.5"/>
				<rect x="558.3" y="544.7" class="st6" width="23.5" height="23.5"/>
				<rect x="590.1" y="544.7" class="st6" width="23.5" height="23.5"/>
				<rect x="494.7" y="582.2" class="st6" width="23.5" height="23.5"/>
				<rect x="558.3" y="582.2" class="st6" width="23.5" height="23.5"/>
				<rect x="590.1" y="582.2" class="st6" width="23.5" height="23.5"/>
				<rect x="494.7" y="619.6" class="st6" width="23.5" height="23.5"/>
				<rect x="526.5" y="619.6" class="st6" width="23.5" height="23.5"/>
				<rect x="558.3" y="619.6" class="st6" width="23.5" height="23.5"/>
				<rect x="590.1" y="619.6" class="st6" width="23.5" height="23.5"/>
			</g>
			<rect x="487.1" y="249.4" class="st6" width="134.1" height="19.6"/>
			<rect x="525" y="237.7" class="st16" width="58.2" height="19.6"/>
		</g>
		<g>
			<rect x="717.9" y="358.6" class="st12" width="116.1" height="363.6"/>
			<rect x="717.9" y="358.6" class="st19" width="116.1" height="7.4"/>
			<g>
				<g>
					<rect x="734.3" y="503.5" class="st6" width="16.9" height="30.4"/>
					<rect x="767.5" y="503.5" class="st6" width="16.9" height="30.4"/>
					<rect x="800.7" y="503.5" class="st6" width="16.9" height="30.4"/>
				</g>
				<g>
					<rect x="734.3" y="461.4" class="st6" width="16.9" height="30.4"/>
					<rect x="767.5" y="461.4" class="st6" width="16.9" height="30.4"/>
					<rect x="800.7" y="461.4" class="st6" width="16.9" height="30.4"/>
				</g>
				<g>
					<rect x="734.3" y="419" class="st6" width="16.9" height="30.4"/>
					<rect x="767.5" y="419" class="st6" width="16.9" height="30.4"/>
					<rect x="800.7" y="419" class="st6" width="16.9" height="30.4"/>
				</g>
				<g>
					<rect x="734.3" y="375.6" class="st6" width="16.9" height="30.4"/>
					<rect x="767.5" y="375.6" class="st6" width="16.9" height="30.4"/>
					<rect x="800.7" y="375.6" class="st6" width="16.9" height="30.4"/>
				</g>
				<g>
					<rect x="734.3" y="546" class="st6" width="16.9" height="30.4"/>
					<rect x="767.5" y="546" class="st6" width="16.9" height="30.4"/>
					<rect x="800.7" y="546" class="st6" width="16.9" height="30.4"/>
				</g>
				<g>
					<rect x="734.3" y="588.5" class="st6" width="16.9" height="30.4"/>
					<rect x="767.5" y="588.5" class="st6" width="16.9" height="30.4"/>
					<rect x="800.7" y="588.5" class="st6" width="16.9" height="30.4"/>
				</g>
				<g>
					<rect x="734.3" y="631.1" class="st6" width="16.9" height="30.4"/>
					<rect x="767.5" y="631.1" class="st6" width="16.9" height="30.4"/>
					<rect x="800.7" y="631.1" class="st6" width="16.9" height="30.4"/>
				</g>
				<g>
					<rect x="734.3" y="673.6" class="st6" width="16.9" height="30.4"/>
					<rect x="767.5" y="673.6" class="st6" width="16.9" height="30.4"/>
					<rect x="800.7" y="673.6" class="st6" width="16.9" height="30.4"/>
				</g>
			</g>
			<rect x="711.3" y="305" class="st14" width="129.4" height="55"/>
		</g>
		<rect x="178.8" y="519.4" class="st12" width="116.2" height="199.1"/>
		<g>
			<g>
				<rect x="195.2" y="531.3" class="st6" width="16.9" height="30.4"/>
				<rect x="228.4" y="531.3" class="st6" width="16.9" height="30.4"/>
				<rect x="261.6" y="531.3" class="st6" width="16.9" height="30.4"/>
			</g>
			<g>
				<rect x="195.2" y="573.8" class="st6" width="16.9" height="30.4"/>
				<rect x="228.4" y="573.8" class="st6" width="16.9" height="30.4"/>
				<rect x="261.6" y="573.8" class="st6" width="16.9" height="30.4"/>
			</g>
			<g>
				<rect x="195.2" y="627.4" class="st6" width="16.9" height="30.4"/>
				<rect x="228.4" y="627.4" class="st6" width="16.9" height="30.4"/>
				<rect x="261.6" y="627.4" class="st6" width="16.9" height="30.4"/>
			</g>
			<g>
				<rect x="195.2" y="669.9" class="st6" width="16.9" height="30.4"/>
				<rect x="228.4" y="669.9" class="st6" width="16.9" height="30.4"/>
				<rect x="261.6" y="669.9" class="st6" width="16.9" height="30.4"/>
			</g>
		</g>
		<rect x="178.8" y="519.4" class="st20" width="116.2" height="7.5"/>
		<rect x="175.4" y="707.7" class="st17" width="122.8" height="13.8"/>
		<rect x="175.4" y="613.7" class="st6" width="122.8" height="4.6"/>
		<rect x="172.2" y="466.3" class="st6" width="129.4" height="55"/>
		<rect x="1059" y="519.4" class="st13" width="116.2" height="199.1"/>
		<g>
			<g>
				<rect x="1075.4" y="531.3" class="st10" width="16.9" height="30.4"/>
				<rect x="1108.6" y="531.3" class="st10" width="16.9" height="30.4"/>
				<rect x="1141.8" y="531.3" class="st10" width="16.9" height="30.4"/>
			</g>
			<g>
				<rect x="1075.4" y="573.8" class="st10" width="16.9" height="30.4"/>
				<rect x="1108.6" y="573.8" class="st10" width="16.9" height="30.4"/>
				<rect x="1141.8" y="573.8" class="st10" width="16.9" height="30.4"/>
			</g>
			<g>
				<rect x="1075.4" y="627.4" class="st10" width="16.9" height="30.4"/>
				<rect x="1108.6" y="627.4" class="st10" width="16.9" height="30.4"/>
				<rect x="1141.8" y="627.4" class="st10" width="16.9" height="30.4"/>
			</g>
			<g>
				<rect x="1075.4" y="669.9" class="st10" width="16.9" height="30.4"/>
				<rect x="1108.6" y="669.9" class="st10" width="16.9" height="30.4"/>
				<rect x="1141.8" y="669.9" class="st10" width="16.9" height="30.4"/>
			</g>
		</g>
		<rect x="1059" y="519.4" class="st20" width="116.2" height="7.5"/>
		<rect x="1055.6" y="707.7" class="st17" width="122.8" height="13.8"/>
		<rect x="1055.6" y="613.7" class="st6" width="122.8" height="4.6"/>
		<rect x="1052.4" y="466.3" class="st6" width="129.4" height="55"/>
		<g>
			<rect x="620.2" y="519.4" class="st15" width="116.1" height="199.1"/>
			<g>
				<g>
					<rect x="636.6" y="531.3" class="st10" width="16.9" height="30.4"/>
					<rect x="669.8" y="531.3" class="st10" width="16.9" height="30.4"/>
					<rect x="703" y="531.3" class="st10" width="16.9" height="30.4"/>
				</g>
				<g>
					<rect x="636.6" y="573.8" class="st10" width="16.9" height="30.4"/>
					<rect x="669.8" y="573.8" class="st10" width="16.9" height="30.4"/>
					<rect x="703" y="573.8" class="st10" width="16.9" height="30.4"/>
				</g>
				<g>
					<rect x="636.6" y="627.4" class="st10" width="16.9" height="30.4"/>
					<rect x="669.8" y="627.4" class="st10" width="16.9" height="30.4"/>
					<rect x="703" y="627.4" class="st10" width="16.9" height="30.4"/>
				</g>
				<g>
					<rect x="636.6" y="669.9" class="st10" width="16.9" height="30.4"/>
					<rect x="669.8" y="669.9" class="st10" width="16.9" height="30.4"/>
					<rect x="703" y="669.9" class="st10" width="16.9" height="30.4"/>
				</g>
			</g>
			<rect x="620.2" y="519.4" class="st20" width="116.1" height="7.5"/>
			<rect x="616.9" y="707.7" class="st21" width="122.8" height="13.8"/>
			<rect x="616.9" y="613.7" class="st14" width="122.8" height="4.6"/>
			<rect x="613.6" y="466.3" class="st14" width="129.4" height="55"/>
		</g>
		<rect x="131.3" y="688.4" class="st10" width="9.8" height="49.2"/>
		<path class="st11" d="M176.6,673.6c0,22.3-18.1,40.3-40.3,40.3c-22.3,0-40.4-18.1-40.4-40.3c0-22.3,18.1-40.3,40.4-40.3
			C158.5,633.3,176.6,651.3,176.6,673.6z"/>
		<g>
			<polygon class="st6" points="795.8,782.9 941.1,782.9 940.8,756.3 905.5,753.3 894.8,726 820,726 815,753.2 797.9,757.9 			"/>
			<polygon class="st22" points="795.8,782.9 941.1,782.9 941,776.2 796.3,776.2 			"/>
			<path class="st6" d="M846.6,783.4c0,9.6-7.8,17.4-17.4,17.4c-9.6,0-17.4-7.8-17.4-17.4s7.8-17.4,17.4-17.4
				C838.8,765.9,846.6,773.7,846.6,783.4z"/>
			<path class="st23" d="M841.2,783.4c0,6.6-5.4,12-12,12c-6.7,0-12-5.4-12-12c0-6.7,5.4-12,12-12
				C835.8,771.3,841.2,776.7,841.2,783.4z"/>
			<path class="st6" d="M928.5,783.4c0,9.6-7.8,17.4-17.4,17.4c-9.6,0-17.4-7.8-17.4-17.4s7.8-17.4,17.4-17.4
				C920.7,765.9,928.5,773.7,928.5,783.4z"/>
			<path class="st23" d="M923.1,783.4c0,6.6-5.4,12-12,12c-6.7,0-12-5.4-12-12c0-6.7,5.4-12,12-12
				C917.7,771.3,923.1,776.7,923.1,783.4z"/>
			<polygon class="st24" points="900.7,753.3 864.5,753.3 864.5,729.5 891.9,729.5 			"/>
			<polygon class="st24" points="823.8,729.8 860.4,729.8 860.4,753.2 820.2,753.2 			"/>
			<path class="st22" d="M901.1,752.3c0,2.5-3.5,4.5-7.7,4.5c-4.3,0-7.7-2-7.7-4.5c0-2.5,3.5-4.5,7.7-4.5
				C897.6,747.8,901.1,749.8,901.1,752.3z"/>
		</g>
		<path class="st23" d="M1111.1,245.3c0.1-1.1,0.2-2.3,0.2-3.4c0-23.3-18.9-42.1-42.1-42.1c-6.2,0-12,1.3-17.3,3.7
			c-5.8-16.3-21.4-27.9-39.7-27.9c-3.8,0-7.4,0.5-10.9,1.4c-4.6-30-30.4-52.9-61.7-52.9c-34.5,0-62.4,27.9-62.4,62.4
			c0,4.7,0.5,9.2,1.5,13.6c-1.8-0.2-3.6-0.4-5.4-0.4c-23.3,0-42.1,18.9-42.1,42.1c0,1.2,0.1,2.3,0.2,3.4H1111.1z"/>
		<path class="st23" d="M207.2,428.3c0.1-1.4,0.2-2.8,0.2-4.2c0-28.8-23.3-52.1-52.1-52.1c-7.6,0-14.9,1.7-21.4,4.6
			c-7.2-20.1-26.5-34.5-49.1-34.5c-4.7,0-9.2,0.6-13.4,1.8c-5.7-37.1-37.7-65.5-76.3-65.5c-42.7,0-77.2,34.6-77.2,77.2
			c0,5.8,0.7,11.4,1.9,16.9c-2.2-0.3-4.4-0.4-6.7-0.4c-28.8,0-52.1,23.3-52.1,52.1c0,1.4,0.1,2.8,0.2,4.2H207.2z"/>
		<path class="st23" d="M283.9,200c0-0.5-0.1-1-0.1-1.4c0-9.8,7.9-17.7,17.7-17.7c2.6,0,5.1,0.6,7.3,1.6c2.5-6.8,9-11.7,16.7-11.7
			c1.6,0,3.1,0.2,4.6,0.6c1.9-12.6,12.8-22.3,26-22.3c14.5,0,26.3,11.8,26.3,26.3c0,2-0.2,3.9-0.6,5.7c0.7-0.1,1.5-0.2,2.3-0.2
			c9.8,0,17.7,7.9,17.7,17.7c0,0.5,0,1-0.1,1.4H283.9z"/>
		<path class="st23" d="M99.6,104.3c0-0.5-0.1-1-0.1-1.4c0-9.8,7.9-17.7,17.7-17.7c2.6,0,5.1,0.6,7.3,1.6c2.5-6.8,9-11.7,16.7-11.7
			c1.6,0,3.1,0.2,4.6,0.6c1.9-12.6,12.8-22.3,26-22.3c14.5,0,26.3,11.8,26.3,26.3c0,2-0.2,3.9-0.6,5.7c0.7-0.1,1.5-0.2,2.3-0.2
			c9.8,0,17.7,7.9,17.7,17.7c0,0.5,0,1-0.1,1.4H99.6z"/>
		<path class="st23" d="M1039.2,438c0-0.5-0.1-1-0.1-1.4c0-9.8,7.9-17.7,17.7-17.7c2.6,0,5.1,0.6,7.3,1.6c2.5-6.8,9-11.7,16.7-11.7
			c1.6,0,3.1,0.2,4.6,0.6c1.9-12.6,12.8-22.3,26-22.3c14.5,0,26.3,11.8,26.3,26.3c0,2-0.2,3.9-0.6,5.7c0.7-0.1,1.5-0.2,2.3-0.2
			c9.8,0,17.7,7.9,17.7,17.7c0,0.5,0,1-0.1,1.4H1039.2z"/>
		<rect x="274.6" y="613" class="st15" width="116.2" height="105.5"/>
		<rect x="274.6" y="613" class="st20" width="116.2" height="10"/>
		<g>
			<g>
				<rect x="291" y="627.4" class="st6" width="16.9" height="30.4"/>
				<rect x="324.2" y="627.4" class="st6" width="16.9" height="30.4"/>
				<rect x="357.4" y="627.4" class="st6" width="16.9" height="30.4"/>
			</g>
			<g>
				<rect x="291" y="669.9" class="st6" width="16.9" height="30.4"/>
				<rect x="324.2" y="669.9" class="st6" width="16.9" height="30.4"/>
				<rect x="357.4" y="669.9" class="st6" width="16.9" height="30.4"/>
			</g>
		</g>
		<rect x="271.2" y="708.4" class="st17" width="803" height="13.8"/>
		<rect x="267.9" y="562.2" class="st14" width="129.4" height="55"/>
		<rect x="462.9" y="214.4" class="st6" width="181.7" height="55"/>
		<rect x="738.6" y="688.4" class="st10" width="9.8" height="49.2"/>
		<circle class="st11" cx="743.5" cy="673.6" r="40.3"/>
		<g>
			<rect x="997.3" y="706.9" class="st10" width="9.8" height="49.2"/>
			<path class="st13" d="M1042.6,692.2c0,22.3-18.1,40.3-40.3,40.3c-22.3,0-40.4-18.1-40.4-40.3c0-22.3,18.1-40.3,40.4-40.3
				C1024.5,651.9,1042.6,669.9,1042.6,692.2z"/>
		</g>
		<rect x="376.2" y="691.3" class="st10" width="9.8" height="49.2"/>
		<path class="st13" d="M421.4,676.6c0,22.3-18.1,40.3-40.3,40.3c-22.3,0-40.4-18.1-40.4-40.3c0-22.3,18.1-40.3,40.4-40.3
			C403.4,636.2,421.4,654.3,421.4,676.6z"/>
		<rect x="177.2" y="709.4" class="st10" width="5.8" height="29.1"/>
		<path class="st13" d="M204,700.7c0,13.2-10.7,23.9-23.9,23.9c-13.2,0-23.9-10.7-23.9-23.9c0-13.2,10.7-23.9,23.9-23.9
			C193.3,676.8,204,687.5,204,700.7z"/>
		<rect x="580.3" y="702" class="st10" width="5.8" height="29.1"/>
		<path class="st11" d="M607.1,693.3c0,13.2-10.7,23.9-23.9,23.9c-13.2,0-23.9-10.7-23.9-23.9c0-13.2,10.7-23.9,23.9-23.9
			C596.4,669.4,607.1,680.1,607.1,693.3z"/>
		<rect x="708.5" y="714.7" class="st10" width="5.8" height="29.1"/>
		<path class="st13" d="M735.4,706c0,13.2-10.7,23.9-23.9,23.9c-13.2,0-23.9-10.7-23.9-23.9c0-13.2,10.7-23.9,23.9-23.9
			C724.7,682.1,735.4,692.8,735.4,706z"/>
		<rect x="1145.1" y="711.2" class="st10" width="5.8" height="29.1"/>
		<path class="st11" d="M1171.9,702.5c0,13.2-10.7,23.9-23.9,23.9c-13.2,0-23.9-10.7-23.9-23.9c0-13.2,10.7-23.9,23.9-23.9
			C1161.2,678.6,1171.9,689.3,1171.9,702.5z"/>
	</g>
</g>
</svg>
