<?xml version="1.0" encoding="utf-8"?>
<!-- Generator: Adobe Illustrator 22.0.1, SVG Export Plug-In . SVG Version: 6.00 Build 0)  -->
<svg version="1.1" id="Layer_1" xmlns="http://www.w3.org/2000/svg" xmlns:xlink="http://www.w3.org/1999/xlink" x="0px" y="0px"
	 viewBox="0 0 322 241" style="enable-background:new 0 0 322 241;" xml:space="preserve">
<style type="text/css">
	.st0{fill-rule:evenodd;clip-rule:evenodd;fill:#DEF9F4;}
	.st1{fill:#28487C;}
	.st2{fill:#76DEFF;}
	.st3{fill:#DC9B93;}
	.st4{fill:#F8C0B6;}
	.st5{fill:#FFDA78;}
	.st6{fill:#FFFFFF;}
</style>
<g id="customer-information-icon">
	<path class="st0" d="M49.3,35.9c0,0-60.8,27-26.1,63s69.5,153,156.4,117s95.6-45,78.2-108S127.5-0.1,49.3,35.9z"/>
	<g>
		<path class="st1" d="M192.8,94.3c0,0,22.4,14.7,20,37.8c-2.4,23.1-8.4,21.7-8.4,21.7h-60.9V92.6L192.8,94.3z"/>
		<path class="st1" d="M93.2,94.3c0,0-22.4,14.7-20,37.8s8.4,21.7,8.4,21.7h60.9V92.6L93.2,94.3z"/>
		<path class="st2" d="M191.3,145.7H96.1c-23.8,2.7-38.9,21.1-47.6,74.1c10.3,0,20.6,0,31,0c0.5-2.2,1-4.3,1.5-6.3
			c1.7-6.4,3.8-11.9,5.8-16.4v22.7H200V199c1.8,4.1,3.5,8.9,5,14.5c0.5,2,1.1,4.1,1.5,6.3h31C229,168.4,207.2,145.7,191.3,145.7z"/>
		<g>
			<path class="st3" d="M161.5,142.4V125h-38v16.6C134.1,150.5,149,148.1,161.5,142.4z"/>
		</g>
		<g>
			<path class="st3" d="M123.6,141.6v5.3c0,10.5,8.5,19,19,19c10.5,0,19-8.5,19-19v-4.5C149,148.1,134.1,150.5,123.6,141.6z"/>
		</g>
		<g>
			<path class="st1" d="M108.5,108.7h68c9,0,16.3-7.3,16.3-16.3V47.3H92.2v45.1C92.2,101.4,99.5,108.7,108.5,108.7z"/>
		</g>
		<g>
			<circle class="st3" cx="185" cy="75.1" r="9"/>
		</g>
		<g>
			<circle class="st3" cx="100.1" cy="75.1" r="9"/>
		</g>
		<g>
			<path class="st4" d="M142.5,142.8L142.5,142.8c-23.4,0-42.4-19-42.4-42.4V37.6H185v62.8C185,123.8,166,142.8,142.5,142.8z"/>
		</g>
		<path class="st1" d="M98.6,52.3h61.6c5.4,0,9.7-5.1,9.7-11.4v0V18.3h-60.2c-9.7,0-17.5,9.2-17.5,20.5v13.5H98.6z"/>
		<path class="st1" d="M169.9,18.3L169.9,18.3c12.7,0,23,10.3,23,23v11h-12.4c-5.8,0-10.5-4.7-10.5-10.5V18.3z"/>
		<path class="st1" d="M185,128.6L185,128.6l0-76.3h3.5v72.9C188.4,127,186.9,128.6,185,128.6z"/>
		<path class="st1" d="M100.1,128.6L100.1,128.6V52.3h-3.5v72.9C96.7,127,98.2,128.6,100.1,128.6z"/>
		<path class="st1" d="M169.2,145.7l6.4,19.3c1.1,3.4-1.8,6.7-5.3,6.1l-27.9-5.1l19-20.3H169.2z"/>
		<path class="st1" d="M115.3,145.7l-6.4,19.3c-1.1,3.4,1.8,6.7,5.3,6.1l27.9-5.1l-19-20.3H115.3z"/>
		<circle class="st1" cx="142.5" cy="183.4" r="3.3"/>
		<circle class="st1" cx="142.5" cy="199.3" r="3.3"/>
		<polygon class="st3" points="143.7,77 143.7,108.8 156.4,108.8 150,77 		"/>
	</g>
	<path class="st5" d="M299.4,103.6h-27l-68-5.1c-5.4-0.6-7.7,6.6-2.9,9.3l33.6,11v50.8c0,5.6,4.5,10.1,10.1,10.1h54.3
		c5.6,0,10.1-4.5,10.1-10.1v-55.9C309.5,108.1,305,103.6,299.4,103.6z"/>
	<g>
		<path class="st6" d="M286.7,120.1h-29.6c-1.9,0-3.5-1.6-3.5-3.5s1.6-3.5,3.5-3.5h29.6c1.9,0,3.5,1.6,3.5,3.5
			S288.6,120.1,286.7,120.1z"/>
	</g>
	<g>
		<path class="st6" d="M293.6,130.9h-43.4c-1.9,0-3.5-1.6-3.5-3.5s1.6-3.5,3.5-3.5h43.4c1.9,0,3.5,1.6,3.5,3.5
			S295.5,130.9,293.6,130.9z"/>
	</g>
	<g>
		<path class="st6" d="M293.6,141.7h-43.4c-1.9,0-3.5-1.6-3.5-3.5s1.6-3.5,3.5-3.5h43.4c1.9,0,3.5,1.6,3.5,3.5
			S295.5,141.7,293.6,141.7z"/>
	</g>
	<g>
		<path class="st6" d="M293.6,152.5h-43.4c-1.9,0-3.5-1.6-3.5-3.5s1.6-3.5,3.5-3.5h43.4c1.9,0,3.5,1.6,3.5,3.5
			S295.5,152.5,293.6,152.5z"/>
	</g>
	<g>
		<path class="st6" d="M293.6,163.3h-43.4c-1.9,0-3.5-1.6-3.5-3.5s1.6-3.5,3.5-3.5h43.4c1.9,0,3.5,1.6,3.5,3.5
			S295.5,163.3,293.6,163.3z"/>
	</g>
	<g>
		<path class="st6" d="M270.1,174.1h-19.9c-1.9,0-3.5-1.6-3.5-3.5s1.6-3.5,3.5-3.5h19.9c1.9,0,3.5,1.6,3.5,3.5
			S272,174.1,270.1,174.1z"/>
	</g>
</g>
</svg>
