<?xml version="1.0" encoding="utf-8"?>
<!-- Generator: Adobe Illustrator 22.0.1, SVG Export Plug-In . SVG Version: 6.00 Build 0)  -->
<svg version="1.1" id="Layer_1" xmlns="http://www.w3.org/2000/svg" xmlns:xlink="http://www.w3.org/1999/xlink" x="0px" y="0px"
	 viewBox="0 0 322 241" style="enable-background:new 0 0 322 241;" xml:space="preserve">
<style type="text/css">
	.st0{fill:#DEF9F4;}
	.st1{fill:#28487C;}
	.st2{fill:#FFDA78;}
	.st3{fill:#76DEFF;}
	.st4{fill:#FEFFFF;}
	.st5{fill:#324A5E;}
	.st6{fill:#1CB388;}
	.st7{fill:#FFFFFF;}
</style>
<g id="data-driven-icon">
	<path class="st0" d="M143.8,32.2c0,0,18,18,81,0s108,117,36,135s-117,52.4-162,34.4C63.4,187.4-72.2,77.2,143.8,32.2z"/>
	<g>
		<rect x="165.2" y="170.4" class="st1" width="6.2" height="48.4"/>
		<path class="st1" d="M172,219.4h-7.4v-49.6h7.4V219.4z M165.8,218.2h5V171h-5V218.2z"/>
	</g>
	<g>
		<polygon class="st1" points="120.3,218.8 137.2,167.5 130.3,167.5 113.4,218.8 		"/>
		<path class="st1" d="M120.7,219.4h-8.3l17.5-52.5h8.3L120.7,219.4z M114.3,218.2h5.6l16.3-50.1h-5.6L114.3,218.2z"/>
	</g>
	<g>
		<polygon class="st1" points="225.3,218.8 199.4,167.5 206.3,167.5 232.2,218.8 		"/>
		<path class="st1" d="M233.2,219.4h-8.3l-26.5-52.5h8.3L233.2,219.4z M225.7,218.2h5.6L206,168.1h-5.6L225.7,218.2z"/>
	</g>
	<g>
		<rect x="70.1" y="62.4" class="st2" width="196.5" height="104.2"/>
		<path class="st2" d="M267.2,167.2H69.5V61.8h197.7V167.2z M70.7,166H266V63H70.7V166z"/>
	</g>
	<g>
		<rect x="63.4" y="165.7" class="st3" width="209.8" height="8.4"/>
		<path class="st3" d="M273.8,174.7h-211v-9.6h211V174.7z M64,173.5h208.6v-7.2H64V173.5z"/>
	</g>
	<g>
		<rect x="63.4" y="58.2" class="st3" width="209.8" height="8.4"/>
		<path class="st3" d="M273.8,67.2h-211v-9.6h211V67.2z M64,66h208.6v-7.2H64V66z"/>
	</g>
	<g>
		<path class="st1" d="M191.5,139.9c0,4.3-3.5,7.7-7.7,7.7H92.5c-4.3,0-7.7-3.5-7.7-7.7V29.3c0-4.3,3.5-7.7,7.7-7.7h91.3
			c4.3,0,7.7,3.5,7.7,7.7V139.9z"/>
	</g>
	<g>
		<path class="st1" d="M84.8,42.2v97.7c0,4.3,3.5,7.7,7.7,7.7h91.3c4.3,0,7.7-3.5,7.7-7.7V42.2H84.8z"/>
	</g>
	<g>
		<path class="st4" d="M90.2,42.2v93.8c0,4,3.1,7.2,6.9,7.2h82c3.8,0,6.9-3.2,6.9-7.2V42.2H90.2z"/>
	</g>
	<g>
		<path class="st4" d="M109.4,32.2c0,1.8-1.4,3.2-3.2,3.2c-1.8,0-3.2-1.4-3.2-3.2s1.4-3.2,3.2-3.2C108,29,109.4,30.4,109.4,32.2z"/>
	</g>
	<g>
		<path class="st4" d="M98.9,32.2c0,1.8-1.4,3.2-3.2,3.2c-1.8,0-3.2-1.4-3.2-3.2s1.4-3.2,3.2-3.2C97.5,29,98.9,30.4,98.9,32.2z"/>
	</g>
	<g>
		<path class="st4" d="M119.3,32.2c0,1.8-1.4,3.2-3.2,3.2c-1.8,0-3.2-1.4-3.2-3.2s1.4-3.2,3.2-3.2C117.9,29,119.3,30.4,119.3,32.2z"
			/>
	</g>
	<g>
		<path class="st4" d="M184.5,32.9c0,1.1-0.6,1.9-1.4,1.9H138c-0.8,0-1.4-0.9-1.4-1.9v-1.3c0-1.1,0.6-1.9,1.4-1.9h45.1
			c0.8,0,1.4,0.9,1.4,1.9V32.9z"/>
	</g>
	<g>
		<g>
			<path class="st0" d="M138.1,79.4c-6.2,0-11.3,5-11.3,11.3c0,6.2,5,11.3,11.3,11.3c6.2,0,11.3-5,11.3-11.3
				C149.4,84.5,144.4,79.4,138.1,79.4z"/>
		</g>
		<g>
			<path class="st3" d="M138.1,54.5v4.6c17.4,0,31.5,14.1,31.5,31.5c0,17.4-14.1,31.5-31.5,31.5c-17.4,0-31.5-14.1-31.5-31.5
				c0-4.1,0.8-7.9,2.2-11.5l-4.3-1.7c-1.6,4.1-2.5,8.5-2.5,13.2c0,20,16.2,36.2,36.2,36.2s36.2-16.2,36.2-36.2
				C174.3,70.7,158.1,54.5,138.1,54.5z"/>
		</g>
		<g>
			<path class="st5" d="M138.1,59.2v5c14.6,0,26.5,11.9,26.5,26.5c0,14.6-11.9,26.5-26.5,26.5c-14.6,0-26.5-11.9-26.5-26.5
				c0-0.4,0-0.8,0-1.2l-5-0.2c0,0.5,0,0.9,0,1.4c0,17.4,14.1,31.5,31.5,31.5c17.4,0,31.5-14.1,31.5-31.5
				C169.7,73.3,155.6,59.2,138.1,59.2z"/>
		</g>
		<g>
			<path class="st6" d="M138.1,64.2v5.2c11.7,0,21.3,9.5,21.3,21.3c0,11.7-9.5,21.3-21.3,21.3c-9.3,0-17.2-6-20.1-14.3l-4.9,1.7
				c3.6,10.4,13.4,17.8,25,17.8c14.6,0,26.5-11.9,26.5-26.5C164.6,76.1,152.8,64.2,138.1,64.2z"/>
		</g>
	</g>
	<g>
		<g>
			<path class="st1" d="M282.3,160.4c0,1.1-0.9,2-2,2h-66c-1.1,0-2-0.9-2-2v-98c0-1.1,0.9-2,2-2h66c1.1,0,2,0.9,2,2V160.4z"/>
			<path class="st1" d="M280.3,162.9h-66c-1.4,0-2.5-1.1-2.5-2.5v-98c0-1.4,1.1-2.5,2.5-2.5h66c1.4,0,2.5,1.1,2.5,2.5v98
				C282.8,161.8,281.7,162.9,280.3,162.9z M214.3,60.9c-0.8,0-1.5,0.7-1.5,1.5v98c0,0.8,0.7,1.5,1.5,1.5h66c0.8,0,1.5-0.7,1.5-1.5
				v-98c0-0.8-0.7-1.5-1.5-1.5H214.3z"/>
		</g>
		<g>
			<path class="st7" d="M277.2,153.9c0,0.8-0.8,1.5-1.7,1.5h-56.4c-0.9,0-1.7-0.7-1.7-1.5v-86c0-0.8,0.8-1.5,1.7-1.5h56.4
				c0.9,0,1.7,0.7,1.7,1.5V153.9z"/>
			<path class="st7" d="M275.5,155.9h-56.4c-1.2,0-2.2-0.9-2.2-2v-86c0-1.1,1-2,2.2-2h56.4c1.2,0,2.2,0.9,2.2,2v86
				C277.7,155,276.7,155.9,275.5,155.9z M219.1,66.9c-0.7,0-1.2,0.4-1.2,1v86c0,0.6,0.5,1,1.2,1h56.4c0.7,0,1.2-0.5,1.2-1v-86
				c0-0.6-0.5-1-1.2-1H219.1z"/>
		</g>
		<g>
			<path class="st2" d="M257,61.5c0,0.9-0.9,1.7-2,1.7h-15.3c-1.1,0-2-0.8-2-1.7v-6.8c0-0.9,0.9-1.7,2-1.7H255c1.1,0,2,0.8,2,1.7
				V61.5z"/>
			<path class="st2" d="M255,63.7h-15.3c-1.4,0-2.5-1-2.5-2.2v-6.8c0-1.2,1.1-2.2,2.5-2.2H255c1.4,0,2.5,1,2.5,2.2v6.8
				C257.5,62.7,256.3,63.7,255,63.7z M239.6,53.5c-0.8,0-1.5,0.5-1.5,1.2v6.8c0,0.7,0.7,1.2,1.5,1.2H255c0.8,0,1.5-0.5,1.5-1.2v-6.8
				c0-0.7-0.7-1.2-1.5-1.2H239.6z"/>
		</g>
		<g>
			<rect x="244.3" y="49.1" class="st1" width="6.5" height="11.2"/>
			<path class="st1" d="M251.3,60.7h-7.5V48.6h7.5V60.7z M244.8,59.7h5.5V49.6h-5.5V59.7z"/>
		</g>
		<g>
			<g>
				<rect x="238.8" y="81" class="st5" width="25.6" height="2"/>
			</g>
			<g>
				<rect x="238.8" y="74.4" class="st5" width="32.2" height="2"/>
			</g>
			<g>
				<rect x="238.8" y="117.9" class="st5" width="32.2" height="2"/>
			</g>
			<g>
				<rect x="238.8" y="124.6" class="st5" width="22.7" height="2"/>
			</g>
			<g>
				<rect x="238.8" y="99.9" class="st5" width="32.2" height="2"/>
			</g>
			<g>
				<rect x="238.8" y="106.6" class="st5" width="22.7" height="2"/>
			</g>
			<g>
				<polygon class="st6" points="225.1,108.9 220.8,104.6 222.9,102.5 224.6,104.2 229.6,96.7 232.1,98.4 				"/>
			</g>
			<g>
				<polygon class="st6" points="225.1,85.1 220.8,80.8 222.9,78.7 224.6,80.4 229.6,72.9 232.1,74.6 				"/>
			</g>
		</g>
	</g>
</g>
</svg>
