<?xml version="1.0" encoding="utf-8"?>
<!-- Generator: Adobe Illustrator 22.0.1, SVG Export Plug-In . SVG Version: 6.00 Build 0)  -->
<svg version="1.1" id="Layer_1" xmlns="http://www.w3.org/2000/svg" xmlns:xlink="http://www.w3.org/1999/xlink" x="0px" y="0px"
	 viewBox="0 0 322 241" style="enable-background:new 0 0 322 241;" xml:space="preserve">
<style type="text/css">
	.st0{fill:#DEF9F4;}
	.st1{fill:#28487C;}
	.st2{fill:#F4F8F7;}
	.st3{fill:#1CB388;}
	.st4{fill:#E8B665;}
	.st5{fill:#FFDA78;}
	.st6{fill:#76DEFF;}
</style>
<g id="data-dashboard-icon">
	<g>
		<path class="st0" d="M284.7,92.8c0,0-72-92-117-71.5s-180,51.1-153,132.9s207,92,234,20.4"/>
	</g>
	<g>
		<g>
			<g>
				<path class="st1" d="M298.2,62.3c7.4,0,13.5,6,13.5,13.5v142.1c0,7.4-6,13.5-13.5,13.5H90.7c-7.4,0-13.5-6-13.5-13.5V75.8
					c0-7.4,6-13.5,13.5-13.5H298.2z"/>
			</g>
			<g>
				<rect x="102.7" y="74" class="st2" width="183.6" height="145.7"/>
			</g>
			<g>
				<circle class="st2" cx="297.7" cy="152.1" r="6"/>
			</g>
		</g>
		<g>
			<g>
				<polygon class="st3" points="52.4,212.7 87.1,133.6 121.8,212.7 				"/>
			</g>
			<g>
				<polygon class="st4" points="186.7,212.7 226.8,121.3 266.9,212.7 				"/>
			</g>
			<g>
				<polygon class="st1" points="165.5,212.7 185.9,166.3 206.2,212.7 				"/>
			</g>
			<g>
				<polygon class="st5" points="93.6,212.7 139.4,108.2 185.3,212.7 				"/>
			</g>
			<g>
				<rect x="94.2" y="96.4" class="st6" width="3" height="72"/>
			</g>
			<g>
				<polygon class="st6" points="150.7,169.5 148.6,167.4 166.2,149.8 166.2,105.4 169.2,105.4 169.2,151 				"/>
			</g>
			<g>
				<polygon class="st6" points="186.7,187.5 184.6,185.4 193.2,176.8 193.2,123.4 196.2,123.4 196.2,178 				"/>
			</g>
			<g>
				<rect x="256.2" y="105.4" class="st6" width="3" height="81"/>
			</g>
		</g>
	</g>
</g>
</svg>
