<?xml version="1.0" encoding="utf-8"?>
<!-- Generator: Adobe Illustrator 22.0.1, SVG Export Plug-In . SVG Version: 6.00 Build 0)  -->
<svg version="1.1" id="Layer_1" xmlns="http://www.w3.org/2000/svg" xmlns:xlink="http://www.w3.org/1999/xlink" x="0px" y="0px"
	 viewBox="0 0 322 241" style="enable-background:new 0 0 322 241;" xml:space="preserve">
<style type="text/css">
	.st0{fill:#DEF9F4;}
	.st1{fill:#1CB388;}
	.st2{fill:#76DEFF;}
	.st3{fill:#28487C;}
	.st4{fill:#FFDA78;}
</style>
<g id="expenses-icon">
	<path class="st0" d="M170.9,42.3c0,0,10.8,23,76.2,27.4c65.4,4.4,62,146.7-11.9,139.2s-127.8,9.6-164.1-22.6
		C42.7,161-47.5,11.4,170.9,42.3z"/>
	<g>
		
			<rect x="62.9" y="57.7" transform="matrix(0.8967 -0.4427 0.4427 0.8967 -24.6375 65.4906)" class="st1" width="130.2" height="55.6"/>
		
			<rect x="76" y="66.3" transform="matrix(0.9348 -0.3552 0.3552 0.9348 -24.2282 56.228)" class="st2" width="130.2" height="55.6"/>
		<path class="st3" d="M228.1,141.4L91.1,185.8c-3.7,1.2-7.8-0.8-9-4.6l-21.4-65.9c-1.2-3.7,0.8-7.8,4.6-9l136.9-44.4L228.1,141.4z"
			/>
		<path class="st2" d="M225,111.7l-28.5,9.2c-6.6,2.1-13.7-1.5-15.8-8.1l0,0c-2.1-6.6,1.5-13.7,8.1-15.8l28.5-9.2L225,111.7z"/>
		<g>
			<g>
				<path class="st4" d="M195.8,83.2l-8,2.6c-1.1,0.4-2.3-0.3-2.7-1.4c-0.4-1.1,0.3-2.3,1.4-2.7l8-2.6c1.1-0.4,2.3,0.3,2.7,1.4
					C197.6,81.6,197,82.8,195.8,83.2z M179.9,88.3l-8,2.6c-1.1,0.4-2.3-0.3-2.7-1.4c-0.4-1.1,0.3-2.3,1.4-2.7l8-2.6
					c1.1-0.4,2.3,0.3,2.7,1.4C181.6,86.8,181,88,179.9,88.3z M164,93.5l-8,2.6c-1.1,0.4-2.3-0.3-2.7-1.4c-0.4-1.1,0.3-2.3,1.4-2.7
					l8-2.6c1.1-0.4,2.3,0.3,2.7,1.4C165.7,91.9,165.1,93.1,164,93.5z M148,98.7l-8,2.6c-1.1,0.4-2.3-0.3-2.7-1.4
					c-0.4-1.1,0.3-2.3,1.4-2.7l8-2.6c1.1-0.4,2.3,0.3,2.7,1.4C149.8,97.1,149.1,98.3,148,98.7z M132.1,103.9l-8,2.6
					c-1.1,0.4-2.3-0.3-2.7-1.4c-0.4-1.1,0.3-2.3,1.4-2.7l8-2.6c1.1-0.4,2.3,0.3,2.7,1.4C133.8,102.3,133.2,103.5,132.1,103.9z
					 M116.1,109l-8,2.6c-1.1,0.4-2.3-0.3-2.7-1.4c-0.4-1.1,0.3-2.3,1.4-2.7l8-2.6c1.1-0.4,2.3,0.3,2.7,1.4
					C117.9,107.5,117.2,108.7,116.1,109z M100.2,114.2l-8,2.6c-1.1,0.4-2.3-0.3-2.7-1.4c-0.4-1.1,0.3-2.3,1.4-2.7l8-2.6
					c1.1-0.4,2.3,0.3,2.7,1.4C101.9,112.6,101.3,113.8,100.2,114.2z M84.2,119.4l-8,2.6c-1.1,0.4-2.3-0.3-2.7-1.4
					c-0.4-1.1,0.3-2.3,1.4-2.7l8-2.6c1.1-0.4,2.3,0.3,2.7,1.4C86,117.8,85.3,119,84.2,119.4z"/>
			</g>
			<g>
				<path class="st4" d="M211.7,132.1l-8,2.6c-1.1,0.4-2.3-0.3-2.7-1.4c-0.4-1.1,0.3-2.3,1.4-2.7l8-2.6c1.1-0.4,2.3,0.3,2.7,1.4
					C213.5,130.5,212.9,131.7,211.7,132.1z M195.8,137.3l-8,2.6c-1.1,0.4-2.3-0.3-2.7-1.4c-0.4-1.1,0.3-2.3,1.4-2.7l8-2.6
					c1.1-0.4,2.3,0.3,2.7,1.4C197.5,135.7,196.9,136.9,195.8,137.3z M179.8,142.4l-8,2.6c-1.1,0.4-2.3-0.3-2.7-1.4
					c-0.4-1.1,0.3-2.3,1.4-2.7l8-2.6c1.1-0.4,2.3,0.3,2.7,1.4C181.6,140.8,181,142.1,179.8,142.4z M163.9,147.6l-8,2.6
					c-1.1,0.4-2.3-0.3-2.7-1.4c-0.4-1.1,0.3-2.3,1.4-2.7l8-2.6c1.1-0.4,2.3,0.3,2.7,1.4C165.6,146,165,147.2,163.9,147.6z
					 M147.9,152.8l-8,2.6c-1.1,0.4-2.3-0.3-2.7-1.4c-0.4-1.1,0.3-2.3,1.4-2.7l8-2.6c1.1-0.4,2.3,0.3,2.7,1.4
					C149.7,151.2,149.1,152.4,147.9,152.8z M132,158l-8,2.6c-1.1,0.4-2.3-0.3-2.7-1.4s0.3-2.3,1.4-2.7l8-2.6
					c1.1-0.4,2.3,0.3,2.7,1.4C133.7,156.4,133.1,157.6,132,158z M116,163.1l-8,2.6c-1.1,0.4-2.3-0.3-2.7-1.4s0.3-2.3,1.4-2.7l8-2.6
					c1.1-0.4,2.3,0.3,2.7,1.4C117.8,161.6,117.2,162.8,116,163.1z M100.1,168.3l-8,2.6c-1.1,0.4-2.3-0.3-2.7-1.4
					c-0.4-1.1,0.3-2.3,1.4-2.7l8-2.6c1.1-0.4,2.3,0.3,2.7,1.4S101.2,167.9,100.1,168.3z"/>
			</g>
		</g>
		<path class="st4" d="M198.1,114.9c-3.9,1.2-8-0.9-9.2-4.7c-1.2-3.9,0.9-8,4.7-9.2c3.9-1.2,8,0.9,9.2,4.7
			C204,109.5,201.9,113.7,198.1,114.9z M194.7,104.7c-1.8,0.6-2.8,2.5-2.2,4.3c0.6,1.8,2.5,2.8,4.3,2.2c1.8-0.6,2.8-2.5,2.2-4.3
			C198.5,105.1,196.6,104.1,194.7,104.7z"/>
	</g>
</g>
</svg>
