<?xml version="1.0" encoding="utf-8"?>
<!-- Generator: Adobe Illustrator 22.0.1, SVG Export Plug-In . SVG Version: 6.00 Build 0)  -->
<svg version="1.1" id="Layer_1" xmlns="http://www.w3.org/2000/svg" xmlns:xlink="http://www.w3.org/1999/xlink" x="0px" y="0px"
	 viewBox="0 0 322 241" style="enable-background:new 0 0 322 241;" xml:space="preserve">
<style type="text/css">
	.st0{fill:#DEF9F4;}
	.st1{fill:#FFDA78;}
	.st2{fill:#1CB388;}
	.st3{fill:#28487C;}
</style>
<g id="financial-vs-prior-icon">
	<g>
		<path class="st0" d="M250.8,123.1c0,0,18-63-27-63s-243,0-207,81s30.5,91,171,81C313.8,213.1,250.8,177.1,250.8,123.1z"/>
	</g>
	<rect x="246.5" y="97" class="st1" width="45" height="108"/>
	<rect x="174.5" y="34" class="st1" width="45" height="171"/>
	<rect x="102.5" y="7" class="st1" width="45" height="198"/>
	<g>
		<g>
			<path class="st2" d="M175,72.6l10.1-32.1h-9.6c-9.7,0-19.4-1.1-28.8-3.2l0,0c-9.5-2.2-19.1-3.2-28.8-3.2h-10l14.1,38.6
				c2.1,6.8-0.6,14.2-6.6,18c-17.6,11.1-29.2,30.9-28.9,53.3c0.5,33.4,27.7,60.7,61.1,61.1c34.7,0.5,62.9-27.5,62.9-62
				c0-22-11.5-41.4-28.8-52.4C175.6,86.8,172.9,79.4,175,72.6z"/>
			<path class="st2" d="M210.5,143c0-22-11.5-41.4-28.8-52.4c-6-3.8-8.8-11.2-6.7-18l10.1-32.1h-9.6c-9.4,0-18.9-1-28.1-3.1V205
				c0.1,0,0.1,0,0.2,0C182.3,205.5,210.5,177.5,210.5,143z"/>
			<path class="st3" d="M178.6,84.3h-59.7c-2.5,0-4.6-2.1-4.6-4.6l0,0c0-2.5,2.1-4.6,4.6-4.6h59.7c2.5,0,4.6,2.1,4.6,4.6l0,0
				C183.1,82.3,181.1,84.3,178.6,84.3z"/>
		</g>
		<g>
			<path class="st1" d="M168.8,166.7h-36.4v-8.5c4.8-1.3,7.2-4.7,7.2-10.1v-4.3h-6.4v-8.1h6.4v-7c0-4.9,1.5-8.9,4.6-12
				c3-3,7.2-4.6,12.4-4.6c3.2,0,6.1,0.6,8.8,1.8v9.7c-2.4-1.6-5.1-2.5-7.8-2.5c-4.6,0-6.9,2.9-6.9,8.6v5.9h10v8.1h-10v3.2
				c0,4.6-1.9,8.1-5.7,10.6h23.9V166.7z"/>
		</g>
	</g>
	<rect x="21.5" y="205" class="st3" width="288" height="18"/>
	<rect x="30.5" y="142" class="st1" width="45" height="63"/>
</g>
</svg>
