<?xml version="1.0" encoding="utf-8"?>
<!-- Generator: Adobe Illustrator 22.0.1, SVG Export Plug-In . SVG Version: 6.00 Build 0)  -->
<svg version="1.1" id="Layer_1" xmlns="http://www.w3.org/2000/svg" xmlns:xlink="http://www.w3.org/1999/xlink" x="0px" y="0px"
	 viewBox="0 0 322 241" style="enable-background:new 0 0 322 241;" xml:space="preserve">
<style type="text/css">
	.st0{fill:#DEF9F4;}
	.st1{fill:#1CB388;}
	.st2{fill:#FFDA78;}
	.st3{fill-rule:evenodd;clip-rule:evenodd;fill:#FFFFFF;}
	.st4{fill-rule:evenodd;clip-rule:evenodd;fill:#FFDA78;}
	.st5{fill-rule:evenodd;clip-rule:evenodd;fill:#28487C;}
</style>
<g id="financial-reports-icon">
	<path class="st0" d="M235.7,66c0,0-135,18-180,45s-36,117,45,90s198,36,189,0S325.7,66,235.7,66z"/>
	<g>
		<path class="st1" d="M221.8,65.5l11.6-37h-11.1c-11.2,0-22.3-1.3-33.3-3.7l0,0c-10.9-2.5-22.1-3.7-33.3-3.7h-11.6l16.3,44.5
			c2.5,7.8-0.6,16.3-7.6,20.7c-20.3,12.8-33.7,35.6-33.3,61.5c0.5,38.5,32,70,70.5,70.5c40,0.6,72.5-31.7,72.5-71.5
			c0-25.4-13.3-47.7-33.2-60.4C222.5,81.9,219.4,73.4,221.8,65.5z"/>
		<path class="st1" d="M262.7,146.7c0-25.4-13.3-47.7-33.2-60.4c-7-4.4-10.2-12.9-7.7-20.8l11.6-37h-11.1c-10.9,0-21.7-1.2-32.4-3.6
			v193.3c0.1,0,0.1,0,0.2,0C230.2,218.8,262.7,186.6,262.7,146.7z"/>
		<path class="st2" d="M225.9,79.1H157c-2.9,0-5.3-2.4-5.3-5.3l0,0c0-2.9,2.4-5.3,5.3-5.3h68.8c2.9,0,5.3,2.4,5.3,5.3l0,0
			C231.2,76.7,228.8,79.1,225.9,79.1z"/>
	</g>
	<g>
		
			<rect x="110.8" y="44.2" transform="matrix(1.844333e-03 -1 1 1.844333e-03 44.2306 184.8771)" class="st3" width="7.8" height="52.2"/>
		
			<rect x="104.1" y="202.7" transform="matrix(1.844333e-03 -1 1 1.844333e-03 -98.2902 322.0495)" class="st3" width="16.2" height="15.2"/>
		<polygon class="st4" points="73.5,76.9 73.5,79.4 73.2,201.5 151.4,201.6 151.4,200.4 151.7,77 		"/>
		<path class="st5" d="M147.7,62.2l-35.2-0.1l-35.2-0.1c-5.9,0-10.7,4.8-10.7,10.6l-0.3,136.5c0,5.9,4.8,10.7,10.6,10.7l35.2,0.1
			l35.2,0.1c5.9,0,10.7-4.8,10.7-10.6l0.3-136.5C158.4,67,153.6,62.2,147.7,62.2z M93.7,68.1l18.8,0l18.8,0c1.4,0,2.5,1.1,2.5,2.5
			c0,1.4-1.1,2.5-2.5,2.5l-18.8,0l-18.8,0c-1.4,0-2.5-1.1-2.5-2.5C91.2,69.2,92.3,68.1,93.7,68.1z M112.3,216.2
			c-3.4,0-6.2-2.8-6.2-6.2c0-3.4,2.8-6.2,6.2-6.2c3.4,0,6.2,2.8,6.2,6.2C118.5,213.4,115.7,216.2,112.3,216.2z M150.7,200.3
			l-38.4-0.1l-38.4-0.1L74.1,79l38.4,0.1l38.4,0.1L150.7,200.3z"/>
	</g>
	<g>
		<path class="st2" d="M214.7,174h-42v-9.8c5.6-1.5,8.3-5.4,8.3-11.6v-5h-7.4v-9.4h7.4v-8.1c0-5.7,1.8-10.3,5.3-13.8
			c3.5-3.5,8.3-5.3,14.3-5.3c3.7,0,7,0.7,10.1,2.1v11.1c-2.8-1.9-5.8-2.9-9-2.9c-5.3,0-8,3.3-8,9.9v6.8h11.6v9.4h-11.6v3.7
			c0,5.3-2.2,9.4-6.6,12.3h27.5V174z"/>
	</g>
</g>
</svg>
