<?xml version="1.0" encoding="utf-8"?>
<!-- Generator: Adobe Illustrator 22.1.0, SVG Export Plug-In . SVG Version: 6.00 Build 0)  -->
<svg version="1.1" id="Layer_1" xmlns="http://www.w3.org/2000/svg" xmlns:xlink="http://www.w3.org/1999/xlink" x="0px" y="0px"
	 viewBox="0 0 230.3 29.9" style="enable-background:new 0 0 230.3 29.9;" xml:space="preserve">
<style type="text/css">
	.st0{fill:#34383A;}
</style>
<g>
	<g>
		<path class="st0" d="M11.4,3.2c4.5,0,7,2.6,7,6c0,2.3-1.5,4.2-3.3,4.8c2,0.5,4,2.4,4,5.3c0,3.7-2.8,6.4-7.1,6.4H3V3.2H11.4z
			 M10.7,12.2c1.8,0,2.9-0.9,2.9-2.5c0-1.5-1-2.4-3-2.4H7.9v4.9H10.7z M11.1,21.7c1.9,0,3.1-1,3.1-2.6c0-1.6-1.1-2.6-3.1-2.6H7.9
			v5.3H11.1z"/>
		<path class="st0" d="M40.5,25.8V3.2h5.1v22.6H40.5z"/>
		<path class="st0" d="M67.2,17.9v-2.6h8.6v2.6H67.2z"/>
		<path class="st0" d="M104.2,6.1v19.7h-3.1V6.1h-7.5V3.2h18.2v2.9H104.2z"/>
		<path class="st0" d="M132.7,25.8V3.2h13.7v2.9h-10.6V13h9.6V16h-9.6v6.9h10.6v2.9H132.7z"/>
		<path class="st0" d="M167.4,14.5c0-7.5,5.6-11.7,11.2-11.7c5.2,0,8.8,2.8,9.9,7.2l-2.9,1c-0.9-3.4-3.3-5.3-7-5.3c-4.1,0-8,3-8,8.9
			c0,5.9,3.9,8.9,8,8.9c3.9,0,6.3-2.3,7.2-5.4l2.8,1c-1.2,4.2-4.8,7.3-10,7.3C172.8,26.3,167.4,22,167.4,14.5z"/>
		<path class="st0" d="M225.2,25.8v-10h-11.5v10h-3.1V3.2h3.1v9.6h11.5V3.2h3.1v22.6H225.2z"/>
	</g>
</g>
</svg>
