<?xml version="1.0" encoding="utf-8"?>
<!-- Generator: Adobe Illustrator 22.0.1, SVG Export Plug-In . SVG Version: 6.00 Build 0)  -->
<svg version="1.1" id="Layer_1" xmlns="http://www.w3.org/2000/svg" xmlns:xlink="http://www.w3.org/1999/xlink" x="0px" y="0px"
	 viewBox="0 0 322 241" style="enable-background:new 0 0 322 241;" xml:space="preserve">
<style type="text/css">
	.st0{fill:#DEF9F4;}
	.st1{fill:#1CB388;}
	.st2{fill:#FFDA78;}
	.st3{fill:#FFD757;}
	.st4{fill:#FF734F;}
	.st5{fill:#28487C;}
	.st6{fill:#76DEFF;}
</style>
<g id="new-customers-icon">
	<path class="st0" d="M119.6,51.4c0,0-45-18-67.5,9s-15,90,45,90s142.5,72,142.5,9s60-54,45-90S149.6,24.4,119.6,51.4z"/>
	<g>
		<polygon class="st1" points="168,202.5 89.3,202.5 80.3,172.6 48.3,70.5 35,68.4 35.4,66 50.2,68.3 82.6,171.9 91.1,200.1 
			168,200.1 		"/>
	</g>
	<g>
		<path class="st2" d="M91.1,188.2c-7.2,0-13.1,5.9-13.1,13.1c0,7.2,5.9,13.1,13.1,13.1c7.2,0,13.1-5.9,13.1-13.1
			C104.2,194.1,98.3,188.2,91.1,188.2z"/>
		<path class="st2" d="M168,185.8c-8.6,0-15.5,7-15.5,15.5c0,8.6,7,15.5,15.5,15.5s15.5-7,15.5-15.5
			C183.5,192.7,176.5,185.8,168,185.8z"/>
		<path class="st2" d="M91.1,185.8c-8.6,0-15.5,7-15.5,15.5c0,8.6,7,15.5,15.5,15.5c8.6,0,15.5-7,15.5-15.5
			C106.6,192.7,99.6,185.8,91.1,185.8z"/>
	</g>
	<g>
		<path class="st3" d="M132.1,78.4c-13.1,0-23.7,10.6-23.7,23.7c0,13.1,10.6,23.7,23.7,23.7c13.1,0,23.7-10.6,23.7-23.7
			C155.8,89.1,145.1,78.4,132.1,78.4z"/>
		<path class="st4" d="M155.3,58.5h-2.4V47.7h-41.6v10.8h-2.4V47.7h-17v108.9h80.5V47.7h-17V58.5z M132.1,128.2
			c-14.4,0-26.1-11.7-26.1-26.1c0-14.4,11.7-26.1,26.1-26.1s26.1,11.7,26.1,26.1C158.2,116.5,146.5,128.2,132.1,128.2z"/>
		<path class="st5" d="M172.4,156.6H91.8L90,47.7h17h48.3h17V156.6z"/>
		<path class="st6" d="M132.1,76c-14.4,0-26.1,11.7-26.1,26.1c0,14.4,11.7,26.1,26.1,26.1s26.1-11.7,26.1-26.1
			C158.2,87.7,146.5,76,132.1,76z"/>
		<path class="st2" d="M111.3,50.9v-5.1c0-10.6,8.7-19.3,19.3-19.3h3c10.6,0,19.3,8.7,19.3,19.3v5.1h2.4v-5.1
			c0-12-9.7-21.7-21.7-21.7h-3c-12,0-21.7,9.7-21.7,21.7v5.1H111.3z"/>
	</g>
	<g>
		<g>
			<path class="st1" d="M133.3,139l-36.5-3.8l-2.1-39.3l38.6,7.4V139z M99.1,132.9l31.8,3.3v-31l-33.6-6.4L99.1,132.9z"/>
		</g>
		<g>
			<path class="st1" d="M99.2,135.4L67.6,132L53.8,88l43.3,8.3L99.2,135.4z M69.4,129.8l27.3,2.9l-1.9-34.3l-37.5-7.2L69.4,129.8z"
				/>
		</g>
		<g>
			<path class="st1" d="M167.5,142.6l-36.6-3.9v-35.9l38.4,7.3L167.5,142.6z M133.3,136.5l31.9,3.4l1.5-27.8l-33.4-6.4V136.5z"/>
		</g>
		<g>
			<path class="st1" d="M187.2,173.5h-23.8l3.4-63.8l39.2,7.5L187.2,173.5z M166,171.1h19.6l8.6-25.7l-26.6-2.8L166,171.1z
				 M167.6,140.1l27.2,2.9l8-24l-33.7-6.5L167.6,140.1z"/>
		</g>
		<g>
			<path class="st1" d="M165.8,173.5h-35v-37.2l36.7,3.9L165.8,173.5z M133.3,171.1h30.2l1.6-28.8l-31.8-3.3V171.1z"/>
		</g>
		<g>
			<path class="st1" d="M101.3,173.5H80.5l-13.8-43.9l32.3,3.4L101.3,173.5z M82.3,171.1h16.4l-1.9-35.9l-26.6-2.8L82.3,171.1z"/>
		</g>
		<g>
			<path class="st1" d="M133.3,173.5H98.9l-2.2-40.8l36.6,3.9V173.5z M101.1,171.1h29.7v-32.4l-31.7-3.3L101.1,171.1z"/>
		</g>
	</g>
</g>
</svg>
