<?xml version="1.0" encoding="utf-8"?>
<!-- Generator: Adobe Illustrator 22.0.1, SVG Export Plug-In . SVG Version: 6.00 Build 0)  -->
<svg version="1.1" id="Layer_1" xmlns="http://www.w3.org/2000/svg" xmlns:xlink="http://www.w3.org/1999/xlink" x="0px" y="0px"
	 viewBox="0 0 1143 617" style="enable-background:new 0 0 1143 617;" xml:space="preserve">
<style type="text/css">
	.st0{fill:#DEF9F4;}
	.st1{clip-path:url(#SVGID_2_);}
	.st2{fill:#E2E2E2;}
	.st3{fill:#212120;}
	.st4{fill:#108E67;}
	.st5{fill:#1CB388;}
	.st6{fill:#F8C0B6;}
	.st7{fill:#34383A;}
	.st8{fill:#515151;}
	.st9{fill:#FFDA78;}
	.st10{fill:#DC9B93;}
	.st11{fill:#28487C;}
	.st12{fill:#76DEFF;}
	.st13{fill:#603E1C;}
	.st14{fill:#E8B665;}
	.st15{fill:#231F20;}
	.st16{opacity:0.6;fill:#DC9B93;}
	.st17{fill:#025654;}
	.st18{fill:#2D2A2B;}
	.st19{fill:#BCBBBB;}
	.st20{fill:#FFFFFF;}
	.st21{fill:#6D4929;}
</style>
<g id="people-technology-illustration">
	<path class="st0" d="M19.2,336.9c-2.9,35.4,2.1,71,15.7,103.8c33.6,81,122.8,191.8,358,156.5c360-54,702,108,729-63s81-630-594-513
		C-104.9,130.8,29.6,208.9,19.2,336.9z"/>
	<g>
		<defs>
			<path id="SVGID_1_" d="M19.2,336.9c-2.9,35.4,2.1,71,15.7,103.8c33.6,81,122.8,191.8,358,156.5c360-54,702,108,729-63
				s81-630-594-513C-104.9,130.8,29.6,208.9,19.2,336.9z"/>
		</defs>
		<clipPath id="SVGID_2_">
			<use xlink:href="#SVGID_1_"  style="overflow:visible;"/>
		</clipPath>
		<g class="st1">
			<g>
				<g>
					<path class="st4" d="M775.1,512.4c0,0,44-121-26.5-198.9l44.6-4.6c0,0,53.1,93,25.1,172.3C790.3,560.4,807.4,534.8,775.1,512.4
						z"/>
					<path class="st5" d="M799.5,532.6V326.8c0,0,1.9-39.5-51.9-39.5h-26.7h-15.7c0,0-40,5.7-78.1,92.4
						c-38.1,86.7-13.3,184.8-13.3,184.8l30-8.6c0,0-27.1-111.5,30-181.8L673,532.6H799.5z"/>
					<path class="st6" d="M616.6,563.7c0,0.3,0,0.5,0,0.8c2.1,36.4,20,47.9,31.4,34.3c11.4-13.6-4.3-42.9-4.3-42.9L616.6,563.7z"/>
					<path class="st7" d="M673,532.6v292h13.6c0,0,22.9-106.5,33.6-264.3h31.4v264.3h15.7c0,0,19.3-107.5,32.1-292H673z"/>
					<rect x="709.8" y="135.9" class="st6" width="76.7" height="32.1"/>
					<path class="st9" d="M796.4,176.4c0,0,11.3-1.4,11.9-10c0.6-8.6-4-17.5-16.5-16.6C779.3,150.7,796.4,176.4,796.4,176.4z"/>
					<path class="st9" d="M694.3,190.7v23.9c0,0,0.2,8,8.7,8c8.5,0,3.3-34.3,3.3-34.3L694.3,190.7z"/>
					<path class="st10" d="M707.8,250.6V288c0,13,11.3,23.6,25.4,23.6c14,0,25.4-10.5,25.4-23.6v-37.4H707.8z"/>
					<path class="st6" d="M700.6,152v77.6c0,25.3,22,45.7,49.2,45.7c27.2,0,49.2-20.5,49.2-45.7V152H700.6z"/>
					<polygon class="st10" points="760.8,171.9 760.8,220.5 778.9,220.5 766.6,171.9 					"/>
					<path class="st9" d="M790.3,242.3c-3.2,0.2-42.8,1.6-42.8,1.6c-27.6,0-30.8-46.9-30.8-46.9l-16-9.9v42.6
						c0,25.3,22,45.7,49.2,45.7c25.3,0,46-17.7,48.9-40.4C798.7,234.9,794.3,242.1,790.3,242.3z"/>
					<path class="st9" d="M783.5,117.5c-35.8-5.4-89.2-3.6-89.2,40.7v28.6l12.2,13.8c0,0-1,3.6,4.4,3.6c0,0,5.8,0.8,5.8-7.2
						c0-8,1.3-12.3,5.8-13.8c4.4-1.4,8.5-16.4,2.1-17.3c-1.1-0.2-2.1-0.7-2.9-1.5h0c0,0-12.8-8.2,0-18.2c12.8-10,37.1,9.4,62.1,9.3
						c9.1-0.1,18-0.9,22.5-3.5C817.7,145.3,819.3,122.8,783.5,117.5z"/>
					<path class="st6" d="M706.5,186.8c-2.1-2.2-5.1-3.6-8.5-3.6c-6.2,0-11.3,4.7-11.3,10.5c0,5.8,5.1,10.5,11.3,10.5
						c3.4,0,6.4-1.4,8.5-3.6V186.8z"/>
				</g>
				<g>
					<g>
						
							<rect x="1019.4" y="407.6" transform="matrix(0.4111 -0.9116 0.9116 0.4111 236.0128 1201.6659)" width="57.4" height="21.2"/>
						
							<rect x="1027.6" y="405.1" transform="matrix(0.4111 -0.9116 0.9116 0.4111 238.6219 1208.9268)" class="st3" width="54.7" height="29.4"/>
						<path d="M1057.6,396.7c-0.5,1.1-1.7,1.5-2.8,1.1c-1.1-0.5-1.5-1.7-1.1-2.8c0.5-1.1,1.7-1.5,2.8-1.1
							C1057.6,394.4,1058.1,395.6,1057.6,396.7z"/>
					</g>
					<path class="st11" d="M978.3,236.5c0,0,6.2,15.5,5.2,30.4c-1,14.9,10.5,16,11,26.4c0.5,10.4-9.5,13.3-8.1,22.6
						c1.4,9.3,14.3,20.2,8.1,32.1c-6.2,11.9-14.4,5.7-19.6,12.4c-5.2,6.7-12.8,11-8.5,27.1c4.3,16.2-41-14.3-41-14.3l-34.6,3.8
						l-9.2,12.9l-2.6,4.3c0,0-15-2.9-14.1-15.7c1-12.9,4.3-20-3.3-28.1c-7.6-8.1-6.7-23.8,0-29.1c6.7-5.2,16.2-12.6,11.4-37
						c-4.8-24.4-11-57.9,41.4-77.6L978.3,236.5z"/>
					<path class="st6" d="M964.4,434.2c0,0,28.2,79.3,88.2,0l21.1,3.7c0,0-21.8,44.9-62.6,52c-40.7,7.1-62.4-35-62.4-35L964.4,434.2
						z"/>
					<path class="st12" d="M969.1,407.3c0,0-1.9-8.8-1.6-16c0.2-7.1-12.9-37.9-39.8-38.8c-26.9-1-43.8,15-61.2,50.7
						c0,0,20.5,11.4,22.6,18.3c2.1,6.9-4,4.8-4.5,12.9c-0.5,8.1,4.3,54.8,5.5,63.3c0,0-16.7,11.7-19.5,34.1
						c-2.9,22.4-20,109.5-20,109.5h147.6l-20.5-100.5c0,0-4.8-26.6-18.6-38.1l4.7-61.9C963.8,440.9,985.2,425.2,969.1,407.3z"/>
					<path class="st6" d="M1047.6,432.8c0,7.5,6.1,13.6,13.6,13.6c7.5,0,13.6-6.1,13.6-13.6c0-7.5-6.1-13.6-13.6-13.6
						C1053.7,419.2,1047.6,425.3,1047.6,432.8z"/>
					<polygon class="st10" points="914.5,327 914.5,365.1 946.4,406.1 937.3,367.9 937.3,329.4 					"/>
					<path class="st6" d="M973.1,236.7c0.7,0,1.3-0.1,1.9-0.2V298c0,21.6-18.8,39.1-42,39.1c-23.2,0-42.1-17.5-42.1-39.1v-61.3
						H973.1z"/>
					<path class="st6" d="M895.9,278.5c-1.8-1.9-4.3-3.1-7.2-3.1c-5.3,0-9.6,4-9.6,9c0,4.9,4.3,9,9.6,9c2.9,0,5.5-1.2,7.2-3.1V278.5
						z"/>
					<path class="st6" d="M907.6,293c0,3.5,6.1,6.3,13.6,6.3c7.5,0,13.6-2.8,13.6-6.3c0-3.5-6.1-6.3-13.6-6.3
						C913.6,286.8,907.6,289.6,907.6,293z"/>
					<path class="st6" d="M972.6,288.9c0.8,0,1.6,0.1,2.3,0.2v8.8c0,0.4,0,0.7-0.1,1.1c-0.7,0.1-1.4,0.2-2.2,0.2
						c-4.5,0-8.2-2.3-8.2-5.2C964.4,291.3,968.1,288.9,972.6,288.9z"/>
					<polygon class="st10" points="959.7,293 948.8,293 948.8,271.2 952.3,271.2 					"/>
					<path class="st11" d="M930.4,204.6c45,0,47.9,31.9,47.9,31.9l-3.4,44.3c0-28.6-15.7-22.4-36.2-25.7c-20.5-3.3-26.2-14-26.2-14
						s4.3,15.4-5.7,21.6c-10,6.2-14.4,15.9-11,27.5c0,0-5-3.6-5-14.6C890.8,275.6,870.2,204.6,930.4,204.6z"/>
					<path class="st6" d="M867.1,403.2c0,0-36.2,75.5-4.6,179c0,0,7.7,26.3,23,19.6c15.2-6.7,4.3-29.1-3.3-45.2
						c-7.6-16.2-16.3-109.4,8.7-131.6C890.8,425,892.6,416.1,867.1,403.2z"/>
					<path class="st13" d="M861.2,578c-0.9-3-1.7-5.9-2.4-8.8l24.4-10.2c1.2,2.7,2.5,5.4,3.8,8.2L861.2,578z"/>
				</g>
				<g>
					<g>
						<path class="st10" d="M152.5,423.9c0,0-6.3,119.5,48.2,177.1l-10.1,41c0,0-80-77-65.6-186.5
							C139.3,345.9,152.5,423.9,152.5,423.9z"/>
						<path class="st11" d="M155.6,407.3c0,0-1.9-8.8-1.6-16c0.2-7.1-12.9-37.9-39.8-38.8c-26.9-1-43.8,15-61.2,50.7
							c0,0,20.5,11.4,22.6,18.3c2.1,6.9-4,4.8-4.5,12.9c-0.5,8.1,4.3,54.8,5.5,63.3c0,0-16.7,11.7-19.5,34.1
							c-2.9,22.4-20,109.5-20,109.5h147.6l-20.5-100.5c0,0-4.8-26.6-18.6-38.1l4.7-61.9C150.3,440.9,171.7,425.2,155.6,407.3z"/>
						<path class="st9" d="M110.8,374.9c9.6,4.1,21.9-2.8,28.1-11.4c-6.3-6-14.5-10.7-24.7-11c-4.4-0.2-8.4,0.2-12.3,0.9
							C100.3,359.6,99.5,370.1,110.8,374.9z"/>
						<path class="st10" d="M107,321.9l22.9,2.2v34.7c0,6.3-5.1,11.4-11.4,11.4c-6.3,0-11.4-5.1-11.4-11.4c0-0.4,0.1-0.8,0.1-1.2
							l-0.1-0.1V321.9z"/>
						<path class="st7" d="M166.5,248.3c0,0,21.1,44.3,5.8,57C157,318,69.5,295.9,69.5,280.9C69.5,265.8,166.5,248.3,166.5,248.3z"
							/>
						<path class="st7" d="M109,317.2c-5.5,20.7-40.5,23.9-47,9.8c-6.4-14.1,3.6-21,3.6-21c-32.1-36.9-16.8-95.6,43.4-104.2
							c60.2-8.6,83.1,31.1,63.3,49.7c-19.7,18.6-67.8,0-67.8,0s2.5,32.6-23.6,35.3L109,317.2z"/>
						<path class="st6" d="M104.5,251.5c0,0,36.5,14.1,59,5.4l0,0l8.5,27.3c6.4,20.6-6.3,42.9-28.5,49.8
							c-22.2,6.9-45.4-4.1-51.8-24.7l-7.3-23.2C106.7,281,104.5,251.5,104.5,251.5z"/>
						<path class="st6" d="M88.2,287.4c-2.2-1.3-5.1-1.7-7.8-0.8c-5.1,1.6-8,6.7-6.5,11.4c1.5,4.7,6.8,7.3,11.9,5.7
							c2.8-0.9,4.9-2.8,6-5.1L88.2,287.4z"/>
						<path class="st6" d="M106.2,299.7c1,3.3,7.7,4.2,14.8,1.9c7.2-2.2,12.1-6.7,11.1-10c-1-3.3-7.7-4.2-14.8-1.9
							C110.2,291.9,105.2,296.4,106.2,299.7z"/>
						<path class="st6" d="M167.1,276.3c0.8-0.2,1.5-0.4,2.2-0.5l2.6,8.4c0.1,0.4,0.2,0.7,0.3,1.1c-0.6,0.3-1.3,0.6-2,0.9
							c-4.3,1.4-8.5,0.2-9.4-2.5C160,281,162.8,277.7,167.1,276.3z"/>
						<polygon class="st10" points="156,284.1 145.6,287.4 139,266.5 142.5,265.4 						"/>
						<g>
							<path class="st7" d="M151.9,226.3c0.6-0.2,1.2-0.5,1.7-0.7l9.8,31.3c-22.4,8.7-59-5.4-59-5.4s2.2,29.5-20,34.7l-11-35.3
								L151.9,226.3z"/>
						</g>
						<path class="st9" d="M75.1,484.7c0.6,6,1.2,10.8,1.5,13.1c0,0-0.2,0.2-0.6,0.4c19.1,2.8,69.6,4.6,69.6,4.6l0.9-11.8
							C129.6,494.9,89.4,487.6,75.1,484.7z"/>
						<path class="st6" d="M53.6,403.2c0,0-36.2,75.5-4.6,179c0,0,7.7,26.3,23,19.6c15.2-6.7,4.3-29.1-3.3-45.2
							C61,540.4,52.3,447.2,77.3,425C77.3,425,79.1,416.1,53.6,403.2z"/>
					</g>
					<g>
						<path class="st11" d="M366.1,302.1c0,0,21.7,23.7,21.7,149.5h-50L366.1,302.1z"/>
						<path class="st6" d="M379.7,453c0,0,13.8,98.6-22.6,100.8c-36.4,2.1,4.6-100.8,4.6-100.8"/>
						<polygon class="st7" points="367.1,520.9 369.3,813.1 347,816.6 312,540.5 293.5,540.5 263.5,816.6 240.4,816.6 240.4,516.6 
													"/>
						<rect x="337.8" y="451.6" class="st14" width="50" height="8.7"/>
						<path class="st12" d="M324.5,261.9c41.6,8.2,45.3,50.1,44.7,69.6c0,0,0.1,0,0.1,0l-2.3,189.3h-1.4h-12.9H241.1
							c-2-31.6-1.1-44.9,0.4-50.1l-36,5C195.6,278,269.9,251.2,324.5,261.9z"/>
						<path class="st6" d="M209,476c0,0,8.8,59.8,26.8,95.1c18.1,35.2,45.2,9.5,32.9-11.9c-12.4-21.4-27.3-80.1-24.3-89.5L209,476z"
							/>
						<path class="st11" d="M263.5,317.2c0,0-27.4,76.5-16.1,143.1l-5.1,6C242.2,466.3,231.1,380.6,263.5,317.2z"/>
						<polygon class="st9" points="247.4,460.3 204.7,467.3 205.4,479.1 248.8,473 						"/>
						<circle class="st15" cx="359.1" cy="154.5" r="12.3"/>
						<path class="st10" d="M330.5,212.1v12.1V246v12.1c0,11.8-10.3,21.4-23,21.4c-12.7,0-23-9.6-23-21.4V246v-21.9v-12.1H330.5z"/>
						<path class="st6" d="M268.7,149.9v70.5c0,22.9,20,41.5,44.7,41.5c24.7,0,44.7-18.6,44.7-41.5v-70.5H268.7z"/>
						<polygon class="st16" points="323.4,168 323.4,212.1 339.8,212.1 328.6,168 						"/>
						<path class="st6" d="M274.1,181.5c-1.9-2-4.6-3.3-7.7-3.3c-5.7,0-10.2,4.3-10.2,9.5c0,5.3,4.6,9.5,10.2,9.5
							c3.1,0,5.8-1.3,7.7-3.3V181.5z"/>
						<path class="st7" d="M274.1,190c0,0,7.7,3.2,9.5-2.3c0,0,10-2.8,2.5-10.8c0,0,9.1-2.5,5.6-12.3c0,0,6.9-3.4,3.8-8
							c0,0,13.2,2.5,17-3.8c0,0,13.4,6.3,22.1,0c0,0,16.1,8.2,23.4,4.8c0,0,11.9-0.9,14.8-12.9c2.9-12-5-21.8-18.8-19.1
							c0,0-1.5-21.4-18.8-23.6c-17.3-2.1-24.6,8.2-25,8.8c0,0-15-11.1-28.2,0.5c-13.2,11.6-14.3,30.5-14.3,31.1
							c0,0.5-12.7,2.3-13.9,15c-1.3,12.7,10.2,14.9,10.2,14.9s-10.5,8.5-4.3,15.4C265.9,194.5,274.1,190,274.1,190z"/>
						<path class="st7" d="M269.5,204c0,0-6.4-3.2-4.4-9.5C267.2,188.3,280.4,198.5,269.5,204z"/>
					</g>
				</g>
				<g>
					<rect x="579.9" y="232.7" class="st19" width="26.8" height="72.5"/>
					<rect x="583.4" y="232.7" class="st20" width="37.1" height="69.1"/>
					<path class="st6" d="M579.9,455.3c0,0-10.5,86.7-25.6,101.8c-15.1,15.1-11.9-101.8-11.9-101.8S555.2,438.9,579.9,455.3z"/>
					<path class="st14" d="M549.5,455.3h30.4c0,0,3.1-125.6-26.5-155.2c-29.6-29.6-35.2,63.4-35.2,63.4L549.5,455.3z"/>
					<path class="st9" d="M554.3,514.6V306.4c0,0-0.1-43.2-61.2-43.2s-70.7,36.5-70.7,55.4c0,18.9,7.5,196.1,7.5,196.1H554.3z"/>
					<path class="st11" d="M556.4,816.1h-21.9c0,0-28.6-198.6-28.6-236.5c0-37.9-7.1-40.7-17.6-39.3c-10.5,1.4-8.1,17.9-14.5,97.2
						c-6.4,79.3-22.1,178.6-22.1,178.6h-22.1l0.4-301.5h124.4l6.7,301.5H556.4z"/>
					<path class="st9" d="M574.2,370.9c-20.6,31.6-60,18-60,18l-3.4,35c0,0,49.5,13.2,91.3-29.3L574.2,370.9z"/>
					<path class="st6" d="M576.1,372.6c0,0,34.4-65.6,19.1-88.5c0,0-3.3-6.2,1-7.1c4.3-1,5.8,1.9,5.8,1.9s-3.9-28.1,10.8-29.1
						c14.8-1,15.7,13.8,15.7,39.5c0,25.7-3.4,79.8-29.2,103L576.1,372.6z"/>
					<path class="st14" d="M460.4,321.1c-1-2.6,21.4,89.1,93.8,66.8v-3.3C546.6,388.1,493.9,408.1,460.4,321.1z"/>
					<path class="st14" d="M554.3,422.8C473.5,444.6,433.8,346,433.8,346c31.5,88.6,95,87.1,120.5,82.5V422.8z"/>
					<path class="st7" d="M551.8,158.5c0,0,10.5-1.4,11.1-10c0.5-8.6-3.8-17.5-15.4-16.6C535.9,132.8,551.8,158.5,551.8,158.5z"/>
					<path class="st3" d="M457,172.8v23.9c0,0,0.2,8,8,8c7.9,0,3-34.3,3-34.3L457,172.8z"/>
					<path class="st10" d="M469.5,232.7v37.4c0,13,10.5,23.6,23.6,23.6s23.6-10.5,23.6-23.6v-37.4H469.5z"/>
					<path class="st6" d="M462.8,134.1v77.6c0,25.3,20.5,45.7,45.7,45.7c25.3,0,45.7-20.5,45.7-45.7v-77.6H462.8z"/>
					<path class="st7" d="M513.1,136c0,0,37.1,4.8,47.9-1.9c10.7-6.7,12.1-29.2-21.1-34.5c-33.2-5.4-82.9-3.6-82.9,40.7v28.6
						l11.3,13.8c0,0-1,3.6,4,3.6c0,0,5.4,0.8,5.4-7.2c0-8,1.2-12.3,5.4-13.8c4.1-1.4,7.9-16.4,2-17.3
						C479.1,147.1,474.7,132.8,513.1,136z"/>
					<polygon class="st16" points="518.8,154 518.8,202.6 535.5,202.6 524.1,154 					"/>
					<path class="st3" d="M593,239.3c0,1.5-1.2,2.7-2.7,2.7c-1.5,0-2.7-1.2-2.7-2.7c0-1.5,1.2-2.7,2.7-2.7
						C591.8,236.6,593,237.8,593,239.3z"/>
					<path class="st6" d="M468.3,168.9c-1.9-2.2-4.7-3.6-7.9-3.6c-5.8,0-10.5,4.7-10.5,10.5c0,5.8,4.7,10.5,10.5,10.5
						c3.1,0,5.9-1.4,7.9-3.6V168.9z"/>
				</g>
			</g>
		</g>
	</g>
</g>
</svg>
