<?xml version="1.0" encoding="utf-8"?>
<!-- Generator: Adobe Illustrator 22.0.1, SVG Export Plug-In . SVG Version: 6.00 Build 0)  -->
<svg version="1.1" id="Layer_1" xmlns="http://www.w3.org/2000/svg" xmlns:xlink="http://www.w3.org/1999/xlink" x="0px" y="0px"
	 viewBox="0 0 322 241" style="enable-background:new 0 0 322 241;" xml:space="preserve">
<style type="text/css">
	.st0{fill:#DEF9F4;}
	.st1{fill:#1CB388;}
	.st2{fill:#28487C;}
	.st3{fill:#F8C0B6;}
	.st4{fill:#76DEFF;}
	.st5{fill:#F4F8F7;}
	.st6{opacity:0.6;}
	.st7{fill:#DC9B93;}
</style>
<g id="power-big-data-icon">
	<g>
		<path class="st0" d="M66.7,201.8c0,0,35.9,59.5,105.6,11.2S341,68.9,240.5,70.4S201,17,139.8,16.7S15.1,117.7,66.7,201.8z"/>
	</g>
	<g>
		<g>
			<path class="st1" d="M134.7,10.2v34.1c0,1.5,2,2,2.7,0.6l15.3-30.5c0.7-1.5,0.1-3.3-1.5-3.9c-4.2-1.6-8.7-2.7-13.4-3.2
				C136.1,7.2,134.7,8.5,134.7,10.2z"/>
		</g>
		<g>
			<path class="st1" d="M137.7,57.2l37.7,18.9c1.5,0.7,3.3,0.1,3.9-1.5c2.2-5.6,3.4-11.7,3.4-18c0-17.8-9.4-33.3-23.4-42
				c-1.4-0.9-3.3-0.3-4,1.2l-18.9,37.7C135.8,54.9,136.3,56.5,137.7,57.2z"/>
		</g>
		<g>
			<path class="st1" d="M132,59.9l-30.6,30.6c-1.2,1.2-1.1,3.1,0.2,4.2c8.6,7.1,19.6,11.5,31.6,11.5c17.8,0,33.3-9.4,42-23.4
				c0.9-1.4,0.3-3.3-1.2-4l-38.7-19.6C134.2,58.8,132.9,59,132,59.9z"/>
		</g>
		<g>
			<path class="st1" d="M131.7,54.9V10.1c0-1.7-1.4-3-3.1-2.8c-25.2,2.3-44.9,23.5-44.9,49.3c0,12.1,4.3,23.1,11.5,31.6
				c1.1,1.3,3,1.3,4.2,0.2l31.5-31.5C131.4,56.3,131.7,55.7,131.7,54.9z"/>
		</g>
	</g>
	<g>
		<g>
			<path class="st2" d="M64.6,224.5v10.8h144.9v-10.8c0-24.9-20.2-45.1-45.1-45.1h-54.7C84.8,179.4,64.6,199.6,64.6,224.5z"/>
		</g>
		<g>
			<g>
				<path class="st3" d="M81.9,82.2c-8.8,0-15.9,7.1-15.9,15.9c0,8.8,7.1,15.9,15.9,15.9c8.8,0,15.9-7.1,15.9-15.9
					C97.8,89.3,90.7,82.2,81.9,82.2z"/>
			</g>
		</g>
		<g>
			<path class="st4" d="M136.8,219.2L136.8,219.2c16.6,0,30-13.4,30-30v-9.7c-0.8,0-1.6-0.1-2.4-0.1h-54.7c-0.9,0-1.9,0-2.8,0.1v9.7
				C106.8,205.7,120.3,219.2,136.8,219.2z"/>
		</g>
		<g>
			<path class="st5" d="M154.6,169.4H137h-0.2h-17.6c-11.6,0-21,9.4-21,21v36.4c0,0,25.5-15.7,30.4-16.1c4.8-0.3,8.4,2.8,8.4,2.8
				s3.4-3.1,8.2-2.8c4.8,0.3,30.4,16.1,30.4,16.1v-36.4C175.6,178.8,166.2,169.4,154.6,169.4z"/>
		</g>
		<g class="st6">
			<path class="st7" d="M116.7,163.2v24.8c0,11.1,9,20.2,20.2,20.2l0,0c11.1,0,20.2-9,20.2-20.2v-24.8H116.7z"/>
		</g>
		<g>
			<path class="st3" d="M78.9,70.7V118c0,32,25.9,57.9,57.9,57.9h0c32,0,57.9-25.9,57.9-57.9V70.7H78.9z"/>
		</g>
		<g class="st6">
			<polygon class="st7" points="146.7,77.6 146.7,139.8 168.1,139.8 153.6,77.6 			"/>
		</g>
	</g>
	<g>
		<polygon class="st4" points="109.7,53.3 83.1,26.7 38.7,26.7 38.7,23.7 84.4,23.7 111.8,51.2 		"/>
	</g>
	<g>
		<polygon class="st4" points="200.7,62.7 173.1,62.7 154.7,44.3 156.8,42.2 174.4,59.7 200.7,59.7 		"/>
	</g>
	<g>
		<polygon class="st4" points="148.1,25.9 145.4,24.6 154.8,5.7 182.7,5.7 182.7,8.7 156.7,8.7 		"/>
	</g>
</g>
</svg>
