<?xml version="1.0" encoding="utf-8"?>
<!-- Generator: Adobe Illustrator 22.0.1, SVG Export Plug-In . SVG Version: 6.00 Build 0)  -->
<svg version="1.1" id="Layer_1" xmlns="http://www.w3.org/2000/svg" xmlns:xlink="http://www.w3.org/1999/xlink" x="0px" y="0px"
	 viewBox="0 0 1174 829.5" style="enable-background:new 0 0 1174 829.5;" xml:space="preserve">
<style type="text/css">
	.st0{fill:#DEF9F4;}
	.st1{fill:#28487C;}
	.st2{fill:#F4F8F7;}
	.st3{fill:#FFDA78;}
	.st4{fill:#76DEFF;}
	.st5{fill:#E8B665;}
	.st6{fill:#1CB388;}
	.st7{fill:#324A5E;}
	.st8{fill-rule:evenodd;clip-rule:evenodd;fill:#F8C0B6;}
	.st9{fill-rule:evenodd;clip-rule:evenodd;fill:#FFFFFF;}
	.st10{fill-rule:evenodd;clip-rule:evenodd;fill:#DC9B93;}
	.st11{fill-rule:evenodd;clip-rule:evenodd;fill:#D6C1C5;}
</style>
<g id="tablet-data-illustration">
	<path class="st0" d="M1173,21.9c-78.7-34.4-160-18.3-216,80.3c-150,264-624,270-713.5,243c-52.1-15.7-108,20.4-145.6,53.4
		c-36.6,32-65.5,83.1-80.9,145.3c-90.3,364.2,823.2,320.4,1156,161V21.9z"/>
	<g>
		<g>
			<path class="st1" d="M604.3,257.4c16.8,0,30.4,13.6,30.4,30.4v320.5c0,16.8-13.6,30.4-30.4,30.4H136.4
				c-16.8,0-30.4-13.6-30.4-30.4V287.8c0-16.8,13.6-30.4,30.4-30.4H604.3z"/>
			<rect x="163.4" y="283.8" class="st2" width="413.9" height="328.6"/>
			<path class="st3" d="M382.9,372.2l-23.4,29.5l-22.1,27.9l-50,63L224,572.2h101.8h80.4h35.6h37.7
				C479.5,491.1,441.7,419,382.9,372.2z"/>
			<path class="st4" d="M473.8,422.8L224,572.2h101.8h80.4h35.6h37.7h35.6C515.1,517.6,500,466.5,473.8,422.8z"/>
			<path class="st5" d="M321.4,377.4l-15.9,31.9l-36,71.9l-45.5,91h101.8h80.4h35.6C441.9,486.9,392.8,413.1,321.4,377.4z"/>
			<path class="st6" d="M406.3,425.4l-12.7,10.2L379.5,447l-13.6,10.9l-62.6,50.4L224,572.2h101.8h80.4h17.4h18.2h16.3
				C458.1,516.6,438.7,465.5,406.3,425.4z"/>
			<g>
				<path class="st7" d="M316.9,423.3l-41.2-54.7h-40.5v-7h42.3c1.1,0,2.1,0.5,2.8,1.4l42.2,56.1L316.9,423.3z"/>
			</g>
			<g>
				<path class="st7" d="M334.5,532.1l-58.7-74.2h-40.6v-7h42.3c1.1,0,2.1,0.5,2.8,1.3l59.8,75.6L334.5,532.1z"/>
			</g>
			<g>
				<path class="st7" d="M402.4,407.5l-5.6-4.2l42.2-56.1c0.7-0.9,1.7-1.4,2.8-1.4h42.3v7h-40.5L402.4,407.5z"/>
			</g>
			<circle class="st2" cx="603.1" cy="459.9" r="13.5"/>
		</g>
		<g>
			<g>
				<path class="st8" d="M401.4,751.3l40.8,67.7c-6.8-0.3-13.6-1-20.5-1c-0.4,0-0.8,0.2-1,0.4l-118.2-12.5l-2.7-4.5L401.4,751.3z"/>
				<path class="st9" d="M431.1,819.4l-46.5-4.9l46.3-28.1l20.9,33.9C444.9,819.8,438,819.6,431.1,819.4z"/>
			</g>
			<g>
				<path class="st10" d="M363.3,576.9l32.4,88.4c4.2,11.4,8.7,58.7-2.3,63.8c-11,5.1-30.5-26.4-34.4-37.9l-19.2-63.9
					C328.9,590.8,350.8,581.1,363.3,576.9z"/>
				<path class="st8" d="M356.1,811.5l-61.4-6.5c-15-9.5-31.9-24.4-41.2-39.7l-48.3-79c-10.5-17.2,6.6-39,23.1-32.3
					c-4.4-17.7,14.2-36.2,30.4-26.2c-8.3-17.9,9.6-39,26.5-31.6l-57-93.7c-14.3-22.7,18.7-48.8,35.3-20.8L396.4,702
					c7.1,12,4.4,27.2,3.9,48.6C399.9,769.1,382.4,798.9,356.1,811.5z"/>
				<path class="st11" d="M244,682.5c0,0-8.9-18.2-16.4-33c0.1,1.6,0.3,3.1,0.6,4.7c-1-0.4-1.9-0.7-2.9-0.9
					C234.1,667,244,682.5,244,682.5L244,682.5z M270.9,651.3c-4.3-6.9-10.3-16.5-15.5-25c1.1,0.4,2.2,1,3.3,1.6
					c-1.2-2.6-1.9-5.2-2-7.9c4.6,8.9,10.6,21,14.8,29.6L270.9,651.3L270.9,651.3z M280.1,594.9c1.5,0.2,3,0.6,4.5,1.2
					c0.4,0.3,0.6,0.4,0.5,0.2c0.7,1.1,1.4,2.3,2.2,3.7l-1.3,4.1C283.9,600.8,281.9,597.7,280.1,594.9z M287.3,600
					c7.5,13,20,36.3,20,36.3s-11.7-17.5-21.3-32.2L287.3,600L287.3,600z M276.8,660.6c0,0-2.4-3.8-5.8-9.3l0.5-1.6
					C274.6,656.1,276.8,660.6,276.8,660.6z"/>
			</g>
		</g>
	</g>
</g>
</svg>
