<?xml version="1.0" encoding="utf-8"?>
<!-- Generator: Adobe Illustrator 22.0.1, SVG Export Plug-In . SVG Version: 6.00 Build 0)  -->
<svg version="1.1" id="Layer_1" xmlns="http://www.w3.org/2000/svg" xmlns:xlink="http://www.w3.org/1999/xlink" x="0px" y="0px"
	 viewBox="0 0 322 241" style="enable-background:new 0 0 322 241;" xml:space="preserve">
<style type="text/css">
	.st0{fill:#DEF9F4;}
	.st1{fill:#76DEFF;}
	.st2{fill:#FFDA78;}
	.st3{fill:#1CB388;}
	.st4{fill:#28487C;}
	.st5{fill:#E8B665;}
</style>
<g id="track-key-icon">
	<path class="st0" d="M108.1,57.2c0,0-54-18-81,9s-18,90,54,90s171,72,171,9s72-54,54-90S144.1,30.2,108.1,57.2z"/>
	<path class="st1" d="M162.8,83c0-0.3,0-0.7,0-1c0-6.9,5.6-12.5,12.5-12.5c1.8,0,3.6,0.4,5.1,1.1c1.7-4.8,6.4-8.3,11.8-8.3
		c1.1,0,2.2,0.1,3.2,0.4c1.4-8.9,9-15.7,18.3-15.7c10.2,0,18.5,8.3,18.5,18.5c0,1.4-0.2,2.7-0.4,4c0.5-0.1,1.1-0.1,1.6-0.1
		c6.9,0,12.5,5.6,12.5,12.5c0,0.3,0,0.7,0,1H162.8z"/>
	<g>
		<g id="XMLID_14_">
			<g>
				<path class="st2" d="M91.8,41h86.8c2.4,0,4.3,1.9,4.3,4.3v150.4c0,2.4-1.9,4.3-4.3,4.3H56c-2.4,0-4.3-1.9-4.3-4.3V81.1L91.8,41z
					"/>
			</g>
		</g>
	</g>
	<g>
		<polygon class="st3" points="225,184.8 225,74 221.5,74 221.5,184.8 177,184.8 177,74 173.5,74 173.5,184.8 128.9,184.8 128.9,74 
			125.4,74 125.4,184.8 80.9,184.8 80.9,74 77.4,74 77.4,188.3 254.9,188.3 254.9,184.8 		"/>
		<polygon class="st4" points="207.1,107.5 216.5,118.1 175,154.9 127.5,121.7 77.7,144.9 80.6,151.3 126.8,129.8 175.5,163.9 
			221.2,123.3 230.4,133.7 241.5,100.5 		"/>
		<path class="st1" d="M79.1,134.9c-7.3,0-13.2,5.9-13.2,13.2c0,7.3,5.9,13.2,13.2,13.2s13.2-5.9,13.2-13.2
			C92.3,140.8,86.4,134.9,79.1,134.9z"/>
		<path class="st1" d="M127.2,112.5c-7.3,0-13.2,5.9-13.2,13.2c0,7.3,5.9,13.2,13.2,13.2c7.3,0,13.2-5.9,13.2-13.2
			C140.4,118.4,134.5,112.5,127.2,112.5z"/>
		<path class="st1" d="M175.2,146.2c-7.3,0-13.2,5.9-13.2,13.2c0,7.3,5.9,13.2,13.2,13.2c7.3,0,13.2-5.9,13.2-13.2
			C188.4,152.1,182.5,146.2,175.2,146.2z"/>
	</g>
	<g>
		<path class="st5" d="M91.8,76.9c0,2.4-1.9,4.3-4.3,4.3H51.7L91.8,41V76.9z"/>
	</g>
</g>
</svg>
